<?xml version="1.0" encoding="UTF-8"?>
<!DOCTYPE svg PUBLIC "-//W3C//DTD SVG 1.1//EN" "http://www.w3.org/Graphics/SVG/1.1/DTD/svg11.dtd">
<svg xmlns="http://www.w3.org/2000/svg" version="1.1" width="500px" height="500px" style="shape-rendering:geometricPrecision; text-rendering:geometricPrecision; image-rendering:optimizeQuality; fill-rule:evenodd; clip-rule:evenodd" xmlns:xlink="http://www.w3.org/1999/xlink">
<g><path style="opacity:0.004" fill="#fefffe" d="M 407.5,4.5 C 408.833,5.16667 408.833,5.16667 407.5,4.5 Z"/></g>
<g><path style="opacity:0.231" fill="#a1a0cf" d="M 372.5,10.5 C 298.167,10.5 223.833,10.5 149.5,10.5C 187.155,8.9939 224.988,8.32724 263,8.5C 299.679,8.30971 336.179,8.97637 372.5,10.5 Z"/></g>
<g><path style="opacity:0.727" fill="#514e9a" d="M 149.5,10.5 C 223.833,10.5 298.167,10.5 372.5,10.5C 372.5,10.8333 372.5,11.1667 372.5,11.5C 301.5,11.5 230.5,11.5 159.5,11.5C 153.417,12.1899 147.417,13.1899 141.5,14.5C 141.5,13.8333 141.5,13.1667 141.5,12.5C 144.553,12.8893 147.22,12.2227 149.5,10.5 Z"/></g>
<g><path style="opacity:0.145" fill="#8182b6" d="M 149.5,10.5 C 147.22,12.2227 144.553,12.8893 141.5,12.5C 143.905,11.2318 146.572,10.5651 149.5,10.5 Z"/></g>
<g><path style="opacity:1" fill="#4843a5" d="M 159.5,11.5 C 230.5,11.5 301.5,11.5 372.5,11.5C 375.272,11.7587 377.605,12.7587 379.5,14.5C 377.345,14.628 375.345,14.128 373.5,13C 301.999,12.8329 230.665,12.3329 159.5,11.5 Z"/></g>
<g><path style="opacity:1" fill="#3f3ba9" d="M 159.5,11.5 C 230.665,12.3329 301.999,12.8329 373.5,13C 375.345,14.128 377.345,14.628 379.5,14.5C 382.716,14.3455 385.383,15.3455 387.5,17.5C 388.681,19.0672 390.347,19.9005 392.5,20C 393.252,20.6708 393.586,21.5041 393.5,22.5C 391.363,21.2126 389.03,20.3793 386.5,20C 385.643,19.3109 384.977,18.4776 384.5,17.5C 378.005,16.9189 371.838,15.5855 366,13.5C 362.158,13.4072 358.491,14.0739 355,15.5C 326.127,14.3371 296.961,14.3371 267.5,15.5C 262.915,15.0849 258.415,14.4182 254,13.5C 244.942,14.7229 235.609,14.7229 226,13.5C 223.667,14.1667 221.333,14.8333 219,15.5C 193.234,14.4974 167.401,14.4974 141.5,15.5C 141.5,15.1667 141.5,14.8333 141.5,14.5C 147.417,13.1899 153.417,12.1899 159.5,11.5 Z"/></g>
<g><path style="opacity:0.498" fill="#847dbe" d="M 141.5,12.5 C 141.5,13.1667 141.5,13.8333 141.5,14.5C 138.833,14.8333 136.167,15.1667 133.5,15.5C 135.936,14.129 138.603,13.129 141.5,12.5 Z"/></g>
<g><path style="opacity:1" fill="#403baf" d="M 393.5,22.5 C 395.829,24.278 398.496,25.278 401.5,25.5C 402.361,27.3863 403.361,29.2196 404.5,31C 404.043,31.414 403.709,31.914 403.5,32.5C 407.142,34.9749 410.642,37.6415 414,40.5C 415.608,43.6208 416.441,46.9541 416.5,50.5C 416.48,52.143 417.147,53.4763 418.5,54.5C 416.009,56.9671 414.676,59.9671 414.5,63.5C 414.5,64.5 414.5,65.5 414.5,66.5C 412.167,66.5 409.833,66.5 407.5,66.5C 407.5,65.5 407.5,64.5 407.5,63.5C 402.167,63.5 396.833,63.5 391.5,63.5C 391.5,64.5 391.5,65.5 391.5,66.5C 383.74,64.4887 375.74,63.4887 367.5,63.5C 367.312,65.1033 367.812,66.4366 369,67.5C 371.621,67.2964 374.455,67.2964 377.5,67.5C 377.725,69.7159 376.892,71.3826 375,72.5C 373.213,71.6569 371.38,71.4902 369.5,72C 368.707,70.9148 368.04,69.7481 367.5,68.5C 354.183,67.5008 340.85,67.1675 327.5,67.5C 327.66,65.8008 327.494,64.1341 327,62.5C 322.333,63.8333 317.667,63.8333 313,62.5C 307.224,64.476 301.391,64.8093 295.5,63.5C 291.442,63.8404 287.442,64.5071 283.5,65.5C 263.26,63.8685 243.26,62.8685 223.5,62.5C 223.5,60.1667 223.5,57.8333 223.5,55.5C 244.836,55.6666 266.169,55.5 287.5,55C 255.507,54.1671 255.507,53.6671 287.5,53.5C 287.5,52.1667 287.5,50.8333 287.5,49.5C 279.5,49.5 271.5,49.5 263.5,49.5C 263.5,50.5 263.5,51.5 263.5,52.5C 231.445,52.1706 199.445,53.1706 167.5,55.5C 167.5,52.8333 167.5,50.1667 167.5,47.5C 160.808,47.6651 154.141,47.3317 147.5,46.5C 142.167,47.5 136.833,48.5 131.5,49.5C 126.226,49.313 126.226,48.813 131.5,48C 127.599,47.894 123.932,47.0607 120.5,45.5C 118.164,46.9183 115.664,47.9183 113,48.5C 111.941,48.3699 111.108,47.8699 110.5,47C 111.333,45.5 112.5,44.3333 114,43.5C 114.711,41.6332 114.211,40.1332 112.5,39C 115.587,35.1821 119.087,34.6821 123,37.5C 123.483,38.448 123.649,39.448 123.5,40.5C 130.143,39.8347 136.809,39.3347 143.5,39C 143.549,36.9538 143.215,34.7871 142.5,32.5C 137.959,31.0155 133.292,30.3488 128.5,30.5C 128.547,34.6484 126.547,36.1484 122.5,35C 121.133,32.6985 120.466,30.1985 120.5,27.5C 122.762,24.6083 125.595,23.6083 129,24.5C 129.44,22.9238 130.273,21.5904 131.5,20.5C 134.398,17.9286 137.731,16.2619 141.5,15.5C 167.401,14.4974 193.234,14.4974 219,15.5C 221.333,14.8333 223.667,14.1667 226,13.5C 235.609,14.7229 244.942,14.7229 254,13.5C 258.415,14.4182 262.915,15.0849 267.5,15.5C 296.961,14.3371 326.127,14.3371 355,15.5C 358.491,14.0739 362.158,13.4072 366,13.5C 371.838,15.5855 378.005,16.9189 384.5,17.5C 384.977,18.4776 385.643,19.3109 386.5,20C 389.03,20.3793 391.363,21.2126 393.5,22.5 Z"/></g>
<g><path style="opacity:0.224" fill="#7977b1" d="M 372.5,11.5 C 372.5,11.1667 372.5,10.8333 372.5,10.5C 380.171,11.6094 387.171,14.2761 393.5,18.5C 391.435,18.4828 389.435,18.1495 387.5,17.5C 385.383,15.3455 382.716,14.3455 379.5,14.5C 377.605,12.7587 375.272,11.7587 372.5,11.5 Z"/></g>
<g><path style="opacity:0.565" fill="#7575ae" d="M 133.5,15.5 C 131.516,18.1639 128.849,19.8305 125.5,20.5C 125.5,20.1667 125.5,19.8333 125.5,19.5C 127.849,17.659 130.515,16.3257 133.5,15.5 Z"/></g>
<g><path style="opacity:0.004" fill="#fefffe" d="M 424.5,18.5 C 425.833,19.1667 425.833,19.1667 424.5,18.5 Z"/></g>
<g><path style="opacity:1" fill="#4c499a" d="M 387.5,17.5 C 389.435,18.1495 391.435,18.4828 393.5,18.5C 396.109,20.8321 398.775,23.1655 401.5,25.5C 398.496,25.278 395.829,24.278 393.5,22.5C 393.586,21.5041 393.252,20.6708 392.5,20C 390.347,19.9005 388.681,19.0672 387.5,17.5 Z"/></g>
<g><path style="opacity:0.176" fill="#9190c0" d="M 393.5,18.5 C 399.007,20.6766 403.674,24.0099 407.5,28.5C 405.5,27.5 403.5,26.5 401.5,25.5C 398.775,23.1655 396.109,20.8321 393.5,18.5 Z"/></g>
<g><path style="opacity:1" fill="#46429d" d="M 141.5,14.5 C 141.5,14.8333 141.5,15.1667 141.5,15.5C 137.731,16.2619 134.398,17.9286 131.5,20.5C 130.273,21.5904 129.44,22.9238 129,24.5C 125.595,23.6083 122.762,24.6083 120.5,27.5C 118.389,29.631 116.056,31.2977 113.5,32.5C 115.5,30.1667 117.5,27.8333 119.5,25.5C 121.091,23.3674 123.091,21.7007 125.5,20.5C 128.849,19.8305 131.516,18.1639 133.5,15.5C 136.167,15.1667 138.833,14.8333 141.5,14.5 Z"/></g>
<g><path style="opacity:0.227" fill="#a2a0cd" d="M 125.5,19.5 C 125.5,19.8333 125.5,20.1667 125.5,20.5C 123.091,21.7007 121.091,23.3674 119.5,25.5C 114.2,29.1329 109.533,33.4663 105.5,38.5C 110.219,30.1139 116.886,23.7806 125.5,19.5 Z"/></g>
<g><path style="opacity:0.271" fill="#9190b9" d="M 105.5,38.5 C 105.727,40.9328 104.727,42.5994 102.5,43.5C 103.11,41.5659 104.11,39.8993 105.5,38.5 Z"/></g>
<g><path style="opacity:0.325" fill="#9593c1" d="M 407.5,28.5 C 418.258,37.6768 424.591,49.3435 426.5,63.5C 425.833,62.1667 425.167,60.8333 424.5,59.5C 424.065,56.8427 423.065,54.5093 421.5,52.5C 421.657,51.1266 421.49,49.7932 421,48.5C 420.098,46.5692 418.931,44.9025 417.5,43.5C 413.444,39.0302 410.11,34.0302 407.5,28.5 Z"/></g>
<g><path style="opacity:1" fill="#433faf" d="M 120.5,27.5 C 120.466,30.1985 121.133,32.6985 122.5,35C 126.547,36.1484 128.547,34.6484 128.5,30.5C 133.292,30.3488 137.959,31.0155 142.5,32.5C 143.215,34.7871 143.549,36.9538 143.5,39C 136.809,39.3347 130.143,39.8347 123.5,40.5C 123.649,39.448 123.483,38.448 123,37.5C 119.087,34.6821 115.587,35.1821 112.5,39C 114.211,40.1332 114.711,41.6332 114,43.5C 112.5,44.3333 111.333,45.5 110.5,47C 111.108,47.8699 111.941,48.3699 113,48.5C 115.664,47.9183 118.164,46.9183 120.5,45.5C 123.932,47.0607 127.599,47.894 131.5,48C 126.226,48.813 126.226,49.313 131.5,49.5C 136.833,48.5 142.167,47.5 147.5,46.5C 154.141,47.3317 160.808,47.6651 167.5,47.5C 167.5,50.1667 167.5,52.8333 167.5,55.5C 199.445,53.1706 231.445,52.1706 263.5,52.5C 263.5,51.5 263.5,50.5 263.5,49.5C 271.5,49.5 279.5,49.5 287.5,49.5C 287.5,50.8333 287.5,52.1667 287.5,53.5C 255.507,53.6671 255.507,54.1671 287.5,55C 266.169,55.5 244.836,55.6666 223.5,55.5C 223.5,57.8333 223.5,60.1667 223.5,62.5C 243.26,62.8685 263.26,63.8685 283.5,65.5C 287.442,64.5071 291.442,63.8404 295.5,63.5C 301.391,64.8093 307.224,64.476 313,62.5C 317.667,63.8333 322.333,63.8333 327,62.5C 327.494,64.1341 327.66,65.8008 327.5,67.5C 340.85,67.1675 354.183,67.5008 367.5,68.5C 368.04,69.7481 368.707,70.9148 369.5,72C 371.38,71.4902 373.213,71.6569 375,72.5C 376.892,71.3826 377.725,69.7159 377.5,67.5C 374.455,67.2964 371.621,67.2964 369,67.5C 367.812,66.4366 367.312,65.1033 367.5,63.5C 375.74,63.4887 383.74,64.4887 391.5,66.5C 391.5,65.5 391.5,64.5 391.5,63.5C 396.833,63.5 402.167,63.5 407.5,63.5C 407.5,64.5 407.5,65.5 407.5,66.5C 409.833,66.5 412.167,66.5 414.5,66.5C 414.5,65.5 414.5,64.5 414.5,63.5C 415.19,68.233 415.856,73.0664 416.5,78C 415.833,78.6667 415.167,79.3333 414.5,80C 409.511,80.4993 404.511,80.6659 399.5,80.5C 399.5,82.1667 399.5,83.8333 399.5,85.5C 394.456,85.1725 389.456,85.5059 384.5,86.5C 384.192,87.3081 383.692,87.9747 383,88.5C 381.608,85.7216 381.108,82.7216 381.5,79.5C 380.167,79.5 378.833,79.5 377.5,79.5C 377.334,83.8461 377.501,88.1794 378,92.5C 378.635,93.9663 379.469,95.2997 380.5,96.5C 378.955,97.4519 377.288,97.7852 375.5,97.5C 374.672,91.8343 374.006,86.0009 373.5,80C 373.325,78.3419 372.658,77.0086 371.5,76C 353.207,76.2802 334.874,76.6135 316.5,77C 315.748,77.6708 315.414,78.5041 315.5,79.5C 314.833,79.5 314.5,79.8333 314.5,80.5C 313.691,82.2922 313.191,84.2922 313,86.5C 312.023,84.26 311.523,81.9267 311.5,79.5C 310.5,79.5 309.5,79.5 308.5,79.5C 308.946,85.0214 308.446,90.3548 307,95.5C 305.726,91.0148 305.059,86.3481 305,81.5C 304.299,84.3272 303.299,86.9938 302,89.5C 301.606,87.0454 300.44,85.0454 298.5,83.5C 297.653,85.8718 296.319,87.8718 294.5,89.5C 293.126,86.637 292.126,83.637 291.5,80.5C 290.675,79.6143 289.675,79.281 288.5,79.5C 288.5,78.5 288.5,77.5 288.5,76.5C 270.497,76.3334 252.497,76.5001 234.5,77C 230.682,77.3722 227.015,78.2055 223.5,79.5C 223.261,77.5328 223.594,75.6995 224.5,74C 228.5,73.6667 232.5,73.3333 236.5,73C 237,72.5 237.5,72 238,71.5C 243.589,72.0096 248.922,72.0096 254,71.5C 254.5,72 255,72.5 255.5,73C 259.167,73.1667 262.833,73.3333 266.5,73.5C 270.679,73.636 274.679,73.136 278.5,72C 264.62,71.9738 250.954,70.8071 237.5,68.5C 232.863,69.2199 228.197,69.7199 223.5,70C 222.663,71.0113 222.33,72.1779 222.5,73.5C 216.668,72.7543 211.334,73.7543 206.5,76.5C 203.833,75.5 203.833,74.5 206.5,73.5C 207.429,72.3112 207.762,70.9778 207.5,69.5C 206.167,69.5 204.833,69.5 203.5,69.5C 203.5,70.5 203.5,71.5 203.5,72.5C 200.752,72.4017 200.086,73.4017 201.5,75.5C 183.659,75.1699 165.992,75.5033 148.5,76.5C 146.023,76.9492 144.023,76.2825 142.5,74.5C 132.188,73.5014 121.855,73.1681 111.5,73.5C 111.5,72.5 111.5,71.5 111.5,70.5C 109.473,70.3379 107.473,70.5045 105.5,71C 105.833,71.3333 106.167,71.6667 106.5,72C 106.105,74.7805 104.772,76.9472 102.5,78.5C 101.833,77.5 101.167,76.5 100.5,75.5C 99.5041,69.5368 99.1707,63.5368 99.5,57.5C 99.4614,56.2438 99.9614,55.2438 101,54.5C 102.748,56.1352 103.915,58.1352 104.5,60.5C 104.833,59.1667 105.167,57.8333 105.5,56.5C 104.055,52.6139 103.555,48.6139 104,44.5C 106.016,42.316 108.183,40.316 110.5,38.5C 110.914,36.0808 111.914,34.0808 113.5,32.5C 116.056,31.2977 118.389,29.631 120.5,27.5 Z"/></g>
<g><path style="opacity:0.004" fill="#fefffe" d="M 36.5,46.5 C 37.8333,47.1667 37.8333,47.1667 36.5,46.5 Z"/></g>
<g><path style="opacity:0.945" fill="#58559f" d="M 417.5,43.5 C 418.931,44.9025 420.098,46.5692 421,48.5C 421.49,49.7932 421.657,51.1266 421.5,52.5C 420.069,51.0975 418.902,49.4308 418,47.5C 417.51,46.2068 417.343,44.8734 417.5,43.5 Z"/></g>
<g><path style="opacity:0.561" fill="#8e8db8" d="M 102.5,43.5 C 101.527,48.4544 99.6941,53.1211 97,57.5C 96.5045,59.4727 96.3379,61.4727 96.5,63.5C 96.1667,63.5 95.8333,63.5 95.5,63.5C 95.1667,63.5 94.8333,63.5 94.5,63.5C 95.5323,56.1131 98.199,49.4465 102.5,43.5 Z"/></g>
<g><path style="opacity:0.004" fill="#fefffe" d="M 471.5,61.5 C 472.833,62.1667 472.833,62.1667 471.5,61.5 Z"/></g>
<g><path style="opacity:1" fill="#4742ae" d="M 416.5,50.5 C 418.577,53.184 420.744,55.8507 423,58.5C 423.5,70.8288 423.667,83.1622 423.5,95.5C 422.633,104.477 421.633,113.477 420.5,122.5C 419.5,122.5 418.5,122.5 417.5,122.5C 417.494,95.8768 416.828,95.8768 415.5,122.5C 399.5,122.5 383.5,122.5 367.5,122.5C 367.5,121.5 367.5,120.5 367.5,119.5C 351.5,119.5 335.5,119.5 319.5,119.5C 319.5,118.5 319.5,117.5 319.5,116.5C 337.52,116.25 355.52,116.584 373.5,117.5C 373.247,115.173 373.914,113.173 375.5,111.5C 374.757,110.818 374.091,110.151 373.5,109.5C 374.239,109.631 374.906,109.464 375.5,109C 374.541,107.293 373.875,105.459 373.5,103.5C 374.754,101.666 375.421,99.6663 375.5,97.5C 377.288,97.7852 378.955,97.4519 380.5,96.5C 379.469,95.2997 378.635,93.9663 378,92.5C 377.501,88.1794 377.334,83.8461 377.5,79.5C 378.833,79.5 380.167,79.5 381.5,79.5C 381.108,82.7216 381.608,85.7216 383,88.5C 383.692,87.9747 384.192,87.3081 384.5,86.5C 389.456,85.5059 394.456,85.1725 399.5,85.5C 399.5,83.8333 399.5,82.1667 399.5,80.5C 404.511,80.6659 409.511,80.4993 414.5,80C 415.167,79.3333 415.833,78.6667 416.5,78C 415.856,73.0664 415.19,68.233 414.5,63.5C 414.676,59.9671 416.009,56.9671 418.5,54.5C 417.147,53.4763 416.48,52.143 416.5,50.5 Z"/></g>
<g><path style="opacity:1" fill="#4744a3" d="M 401.5,25.5 C 403.5,26.5 405.5,27.5 407.5,28.5C 410.11,34.0302 413.444,39.0302 417.5,43.5C 417.343,44.8734 417.51,46.2068 418,47.5C 418.902,49.4308 420.069,51.0975 421.5,52.5C 423.065,54.5093 424.065,56.8427 424.5,59.5C 425.371,82.1543 425.704,104.821 425.5,127.5C 425.167,127.5 424.833,127.5 424.5,127.5C 424.167,116.833 423.833,106.167 423.5,95.5C 423.667,83.1622 423.5,70.8288 423,58.5C 420.744,55.8507 418.577,53.184 416.5,50.5C 416.441,46.9541 415.608,43.6208 414,40.5C 410.642,37.6415 407.142,34.9749 403.5,32.5C 403.709,31.914 404.043,31.414 404.5,31C 403.361,29.2196 402.361,27.3863 401.5,25.5 Z"/></g>
<g><path style="opacity:1" fill="#49439f" d="M 201.5,75.5 C 203.487,76.1642 205.154,77.3308 206.5,79C 205.854,82.0811 205.521,85.2478 205.5,88.5C 205.589,92.0284 206.256,95.3618 207.5,98.5C 207.113,101.238 206.113,103.572 204.5,105.5C 204.5,96.5 204.5,87.5 204.5,78.5C 203.5,78.5 202.5,78.5 201.5,78.5C 183.167,78.5 164.833,78.5 146.5,78.5C 146.5,88.8333 146.5,99.1667 146.5,109.5C 145.506,99.0131 145.172,88.3464 145.5,77.5C 146.791,77.7373 147.791,77.404 148.5,76.5C 165.992,75.5033 183.659,75.1699 201.5,75.5 Z"/></g>
<g><path style="opacity:1" fill="#534996" d="M 375.5,97.5 C 375.421,99.6663 374.754,101.666 373.5,103.5C 373.875,105.459 374.541,107.293 375.5,109C 374.906,109.464 374.239,109.631 373.5,109.5C 372.833,109.5 372.167,109.5 371.5,109.5C 371.827,99.3194 371.494,89.3194 370.5,79.5C 352.833,79.5 335.167,79.5 317.5,79.5C 317.167,79.5 316.833,79.5 316.5,79.5C 316.167,79.5 315.833,79.5 315.5,79.5C 315.414,78.5041 315.748,77.6708 316.5,77C 334.874,76.6135 353.207,76.2802 371.5,76C 372.658,77.0086 373.325,78.3419 373.5,80C 374.006,86.0009 374.672,91.8343 375.5,97.5 Z"/></g>
<g><path style="opacity:0.004" fill="#fefffe" d="M 60.5,79.5 C 61.8333,80.1667 61.8333,80.1667 60.5,79.5 Z"/></g>
<g><path style="opacity:1" fill="#4843af" d="M 99.5,57.5 C 99.1707,63.5368 99.5041,69.5368 100.5,75.5C 101.167,76.5 101.833,77.5 102.5,78.5C 104.772,76.9472 106.105,74.7805 106.5,72C 106.167,71.6667 105.833,71.3333 105.5,71C 107.473,70.5045 109.473,70.3379 111.5,70.5C 111.5,71.5 111.5,72.5 111.5,73.5C 121.855,73.1681 132.188,73.5014 142.5,74.5C 144.023,76.2825 146.023,76.9492 148.5,76.5C 147.791,77.404 146.791,77.7373 145.5,77.5C 145.172,88.3464 145.506,99.0131 146.5,109.5C 146.5,109.833 146.5,110.167 146.5,110.5C 146.227,112.451 146.893,113.951 148.5,115C 144.195,114.923 139.862,114.756 135.5,114.5C 135.5,116.167 135.5,117.833 135.5,119.5C 132.833,119.5 130.167,119.5 127.5,119.5C 127.5,116.833 127.5,114.167 127.5,111.5C 121.5,111.5 115.5,111.5 109.5,111.5C 109.863,119.571 109.363,127.571 108,135.5C 106.996,119.43 105.329,103.43 103,87.5C 102.458,99.0061 102.625,110.506 103.5,122C 103.333,125.5 103.167,129 103,132.5C 102.308,133.025 101.808,133.692 101.5,134.5C 103.339,136.527 103.839,138.86 103,141.5C 102.667,140.167 102.333,138.833 102,137.5C 101.22,139.387 101.387,141.054 102.5,142.5C 101.432,143.434 100.099,143.768 98.5,143.5C 97.3975,116.848 97.2309,90.1812 98,63.5C 98.1909,61.2922 98.6909,59.2922 99.5,57.5 Z"/></g>
<g><path style="opacity:1" fill="#534483" d="M 201.5,79.5 C 201.5,79.1667 201.5,78.8333 201.5,78.5C 202.5,78.5 203.5,78.5 204.5,78.5C 204.5,87.5 204.5,96.5 204.5,105.5C 204.5,106.833 204.5,108.167 204.5,109.5C 203.833,109.833 203.167,110.167 202.5,110.5C 202.828,99.9865 202.494,89.6532 201.5,79.5 Z"/></g>
<g><path style="opacity:0.004" fill="#fefffe" d="M 11.5,94.5 C 12.8333,95.1667 12.8333,95.1667 11.5,94.5 Z"/></g>
<g><path style="opacity:1" fill="#645785" d="M 201.5,78.5 C 201.5,78.8333 201.5,79.1667 201.5,79.5C 183.833,79.5 166.167,79.5 148.5,79.5C 147.506,89.6532 147.172,99.9865 147.5,110.5C 147.167,110.5 146.833,110.5 146.5,110.5C 146.5,110.167 146.5,109.833 146.5,109.5C 146.5,99.1667 146.5,88.8333 146.5,78.5C 164.833,78.5 183.167,78.5 201.5,78.5 Z"/></g>
<g><path style="opacity:0.004" fill="#fefffe" d="M 16.5,103.5 C 17.8333,104.167 17.8333,104.167 16.5,103.5 Z"/></g>
<g><path style="opacity:1" fill="#524785" d="M 315.5,79.5 C 315.833,79.5 316.167,79.5 316.5,79.5C 316.5,89.8333 316.5,100.167 316.5,110.5C 315.883,110.389 315.383,110.056 315,109.5C 314.5,99.8391 314.334,90.1724 314.5,80.5C 314.5,79.8333 314.833,79.5 315.5,79.5 Z"/></g>
<g><path style="opacity:1" fill="#e1cdbf" d="M 148.5,79.5 C 148.5,79.8333 148.5,80.1667 148.5,80.5C 148.5,90.1667 148.5,99.8333 148.5,109.5C 166.008,109.83 183.341,109.497 200.5,108.5C 201.494,99.0144 201.827,89.3478 201.5,79.5C 202.494,89.6532 202.828,99.9865 202.5,110.5C 184.167,110.5 165.833,110.5 147.5,110.5C 147.172,99.9865 147.506,89.6532 148.5,79.5 Z"/></g>
<g><path style="opacity:1" fill="#f5dba0" d="M 148.5,80.5 C 148.833,80.5 149.167,80.5 149.5,80.5C 149.5,89.8333 149.5,99.1667 149.5,108.5C 152.833,108.5 156.167,108.5 159.5,108.5C 172.833,108.5 186.167,108.5 199.5,108.5C 199.833,108.5 200.167,108.5 200.5,108.5C 183.341,109.497 166.008,109.83 148.5,109.5C 148.5,99.8333 148.5,90.1667 148.5,80.5 Z"/></g>
<g><path style="opacity:1" fill="#f7dc8b" d="M 149.5,80.5 C 166.5,80.5 183.5,80.5 200.5,80.5C 200.5,89.8333 200.5,99.1667 200.5,108.5C 200.167,108.5 199.833,108.5 199.5,108.5C 199.666,100.493 199.5,92.4931 199,84.5C 184.146,82.0466 168.98,81.8799 153.5,84C 152.622,89.1877 151.622,94.3543 150.5,99.5C 154.5,100.167 154.5,100.833 150.5,101.5C 150.261,103.467 150.594,105.301 151.5,107C 154.365,107.183 157.031,107.683 159.5,108.5C 156.167,108.5 152.833,108.5 149.5,108.5C 149.5,99.1667 149.5,89.8333 149.5,80.5 Z"/></g>
<g><path style="opacity:1" fill="#fadc80" d="M 199.5,108.5 C 186.167,108.5 172.833,108.5 159.5,108.5C 157.031,107.683 154.365,107.183 151.5,107C 150.594,105.301 150.261,103.467 150.5,101.5C 154.5,100.833 154.5,100.167 150.5,99.5C 151.622,94.3543 152.622,89.1877 153.5,84C 168.98,81.8799 184.146,82.0466 199,84.5C 199.5,92.4931 199.666,100.493 199.5,108.5 Z"/></g>
<g><path style="opacity:1" fill="#efd8b1" d="M 148.5,80.5 C 148.5,80.1667 148.5,79.8333 148.5,79.5C 166.167,79.5 183.833,79.5 201.5,79.5C 201.827,89.3478 201.494,99.0144 200.5,108.5C 200.5,99.1667 200.5,89.8333 200.5,80.5C 183.5,80.5 166.5,80.5 149.5,80.5C 149.167,80.5 148.833,80.5 148.5,80.5 Z"/></g>
<g><path style="opacity:1" fill="#e1cebf" d="M 316.5,79.5 C 316.833,79.5 317.167,79.5 317.5,79.5C 317.173,89.015 317.506,98.3483 318.5,107.5C 318.5,107.833 318.5,108.167 318.5,108.5C 335.659,109.497 352.992,109.83 370.5,109.5C 370.5,99.8333 370.5,90.1667 370.5,80.5C 370.5,80.1667 370.5,79.8333 370.5,79.5C 371.494,89.3194 371.827,99.3194 371.5,109.5C 371.5,109.833 371.5,110.167 371.5,110.5C 353.167,110.5 334.833,110.5 316.5,110.5C 316.5,100.167 316.5,89.8333 316.5,79.5 Z"/></g>
<g><path style="opacity:1" fill="#f6daa1" d="M 369.5,80.5 C 369.833,80.5 370.167,80.5 370.5,80.5C 370.5,90.1667 370.5,99.8333 370.5,109.5C 352.992,109.83 335.659,109.497 318.5,108.5C 335.214,108.819 351.881,108.485 368.5,107.5C 369.498,98.5246 369.832,89.5246 369.5,80.5 Z"/></g>
<g><path style="opacity:1" fill="#f9dc82" d="M 369.5,80.5 C 369.832,89.5246 369.498,98.5246 368.5,107.5C 351.881,108.485 335.214,108.819 318.5,108.5C 318.5,108.167 318.5,107.833 318.5,107.5C 318.5,98.5 318.5,89.5 318.5,80.5C 335.5,80.5 352.5,80.5 369.5,80.5 Z"/></g>
<g><path style="opacity:1" fill="#f0d8b3" d="M 317.5,79.5 C 335.167,79.5 352.833,79.5 370.5,79.5C 370.5,79.8333 370.5,80.1667 370.5,80.5C 370.167,80.5 369.833,80.5 369.5,80.5C 352.5,80.5 335.5,80.5 318.5,80.5C 318.5,89.5 318.5,98.5 318.5,107.5C 317.506,98.3483 317.173,89.015 317.5,79.5 Z"/></g>
<g><path style="opacity:1" fill="#4943ac" d="M 314.5,80.5 C 314.334,90.1724 314.5,99.8391 315,109.5C 315.383,110.056 315.883,110.389 316.5,110.5C 316.611,111.117 316.944,111.617 317.5,112C 335.167,112.667 352.833,112.667 370.5,112C 371.056,111.617 371.389,111.117 371.5,110.5C 371.5,110.167 371.5,109.833 371.5,109.5C 372.167,109.5 372.833,109.5 373.5,109.5C 374.091,110.151 374.757,110.818 375.5,111.5C 373.914,113.173 373.247,115.173 373.5,117.5C 355.52,116.584 337.52,116.25 319.5,116.5C 319.5,117.5 319.5,118.5 319.5,119.5C 311.452,119.506 303.452,120.172 295.5,121.5C 252.866,119.589 210.2,118.923 167.5,119.5C 167.5,118.167 167.5,116.833 167.5,115.5C 179.171,115.667 190.838,115.5 202.5,115C 203.949,113.883 205.616,113.216 207.5,113C 206.552,112.517 205.552,112.351 204.5,112.5C 204.5,111.5 204.5,110.5 204.5,109.5C 204.5,108.167 204.5,106.833 204.5,105.5C 206.113,103.572 207.113,101.238 207.5,98.5C 206.256,95.3618 205.589,92.0284 205.5,88.5C 205.521,85.2478 205.854,82.0811 206.5,79C 205.154,77.3308 203.487,76.1642 201.5,75.5C 200.086,73.4017 200.752,72.4017 203.5,72.5C 203.5,71.5 203.5,70.5 203.5,69.5C 204.833,69.5 206.167,69.5 207.5,69.5C 207.762,70.9778 207.429,72.3112 206.5,73.5C 203.833,74.5 203.833,75.5 206.5,76.5C 211.334,73.7543 216.668,72.7543 222.5,73.5C 222.33,72.1779 222.663,71.0113 223.5,70C 228.197,69.7199 232.863,69.2199 237.5,68.5C 250.954,70.8071 264.62,71.9738 278.5,72C 274.679,73.136 270.679,73.636 266.5,73.5C 262.833,73.3333 259.167,73.1667 255.5,73C 255,72.5 254.5,72 254,71.5C 248.922,72.0096 243.589,72.0096 238,71.5C 237.5,72 237,72.5 236.5,73C 232.5,73.3333 228.5,73.6667 224.5,74C 223.594,75.6995 223.261,77.5328 223.5,79.5C 227.015,78.2055 230.682,77.3722 234.5,77C 252.497,76.5001 270.497,76.3334 288.5,76.5C 288.5,77.5 288.5,78.5 288.5,79.5C 289.675,79.281 290.675,79.6143 291.5,80.5C 292.126,83.637 293.126,86.637 294.5,89.5C 296.319,87.8718 297.653,85.8718 298.5,83.5C 300.44,85.0454 301.606,87.0454 302,89.5C 303.299,86.9938 304.299,84.3272 305,81.5C 305.059,86.3481 305.726,91.0148 307,95.5C 308.446,90.3548 308.946,85.0214 308.5,79.5C 309.5,79.5 310.5,79.5 311.5,79.5C 311.523,81.9267 312.023,84.26 313,86.5C 313.191,84.2922 313.691,82.2922 314.5,80.5 Z"/></g>
<g><path style="opacity:1" fill="#6f6185" d="M 286.5,110.5 C 286.5,100.167 286.5,89.8333 286.5,79.5C 268.5,79.5 250.5,79.5 232.5,79.5C 232.5,89.8333 232.5,100.167 232.5,110.5C 231.883,110.389 231.383,110.056 231,109.5C 230.181,99.2562 230.348,89.0895 231.5,79C 250.164,78.5001 268.83,78.3334 287.5,78.5C 287.828,89.3464 287.494,100.013 286.5,110.5 Z"/></g>
<g><path style="opacity:1" fill="#ebd7c0" d="M 286.5,110.5 C 268.5,110.5 250.5,110.5 232.5,110.5C 232.5,100.167 232.5,89.8333 232.5,79.5C 250.5,79.5 268.5,79.5 286.5,79.5C 286.5,89.8333 286.5,100.167 286.5,110.5 Z"/></g>
<g><path style="opacity:1" fill="#f4da9b" d="M 234.5,108.5 C 233.506,99.3483 233.173,90.015 233.5,80.5C 250.833,80.5 268.167,80.5 285.5,80.5C 285.5,90.1667 285.5,99.8333 285.5,109.5C 268.325,109.83 251.325,109.497 234.5,108.5 Z"/></g>
<g><path style="opacity:1" fill="#f9dc81" d="M 234.5,108.5 C 234.334,100.493 234.5,92.4931 235,84.5C 235.903,83.2986 237.069,82.4652 238.5,82C 253.741,81.1764 268.908,81.3431 284,82.5C 284.5,91.1603 284.666,99.8269 284.5,108.5C 267.833,108.5 251.167,108.5 234.5,108.5 Z"/></g>
<g><path style="opacity:1" fill="#4c47af" d="M 146.5,110.5 C 146.833,110.5 147.167,110.5 147.5,110.5C 156.308,111.832 165.475,112.498 175,112.5C 184.525,112.498 193.692,111.832 202.5,110.5C 203.167,110.167 203.833,109.833 204.5,109.5C 204.5,110.5 204.5,111.5 204.5,112.5C 205.552,112.351 206.552,112.517 207.5,113C 205.616,113.216 203.949,113.883 202.5,115C 190.838,115.5 179.171,115.667 167.5,115.5C 167.5,116.833 167.5,118.167 167.5,119.5C 210.2,118.923 252.866,119.589 295.5,121.5C 303.452,120.172 311.452,119.506 319.5,119.5C 335.5,119.5 351.5,119.5 367.5,119.5C 367.5,120.5 367.5,121.5 367.5,122.5C 383.5,122.5 399.5,122.5 415.5,122.5C 416.828,95.8768 417.494,95.8768 417.5,122.5C 418.5,122.5 419.5,122.5 420.5,122.5C 421.633,113.477 422.633,104.477 423.5,95.5C 423.833,106.167 424.167,116.833 424.5,127.5C 424.5,138.167 424.5,148.833 424.5,159.5C 416.582,159.731 408.582,159.731 400.5,159.5C 399.908,162.127 399.575,164.794 399.5,167.5C 394.5,167.5 389.5,167.5 384.5,167.5C 384.216,170.254 383.549,172.92 382.5,175.5C 381.191,169.278 381.191,163.111 382.5,157C 380.08,152.496 379.08,147.663 379.5,142.5C 373.376,142.292 372.876,143.959 378,147.5C 378.667,148.167 378.667,148.833 378,149.5C 376.224,150.536 374.391,150.536 372.5,149.5C 372.389,148.883 372.056,148.383 371.5,148C 353.833,147.333 336.167,147.333 318.5,148C 317.177,148.816 316.511,149.983 316.5,151.5C 314.883,152.038 313.216,152.371 311.5,152.5C 310.978,159.826 310.478,167.159 310,174.5C 309.242,164.117 308.908,153.784 309,143.5C 308,145.167 307,146.833 306,148.5C 304.563,141.927 303.396,141.927 302.5,148.5C 302.977,149.931 303.643,151.264 304.5,152.5C 305.863,151.121 306.863,151.287 307.5,153C 306.198,155.778 304.532,158.278 302.5,160.5C 301.526,162.743 301.192,165.076 301.5,167.5C 300.5,167.5 299.5,167.5 298.5,167.5C 296.353,163.237 297.353,160.07 301.5,158C 300.914,155.72 300.08,153.553 299,151.5C 298,152.5 297,153.5 296,154.5C 295.456,159.344 294.456,164.01 293,168.5C 292.042,166.801 291.542,164.967 291.5,163C 292.8,157.817 292.8,152.65 291.5,147.5C 271.804,146.846 252.471,147.512 233.5,149.5C 230.901,149.549 228.734,150.549 227,152.5C 226.122,155.257 225.122,157.924 224,160.5C 218.593,159.527 213.093,159.193 207.5,159.5C 207.33,158.178 207.663,157.011 208.5,156C 207.584,155.626 206.75,155.126 206,154.5C 205.901,152.347 205.067,150.681 203.5,149.5C 203.389,148.883 203.056,148.383 202.5,148C 188.523,146.904 174.523,146.237 160.5,146C 157.829,142.702 156.829,143.035 157.5,147C 153.821,147.026 150.488,147.86 147.5,149.5C 147.5,149.833 147.5,150.167 147.5,150.5C 132.882,151.467 118.215,151.8 103.5,151.5C 103.81,148.287 103.477,145.287 102.5,142.5C 101.387,141.054 101.22,139.387 102,137.5C 102.333,138.833 102.667,140.167 103,141.5C 103.839,138.86 103.339,136.527 101.5,134.5C 101.808,133.692 102.308,133.025 103,132.5C 103.167,129 103.333,125.5 103.5,122C 102.625,110.506 102.458,99.0061 103,87.5C 105.329,103.43 106.996,119.43 108,135.5C 109.363,127.571 109.863,119.571 109.5,111.5C 115.5,111.5 121.5,111.5 127.5,111.5C 127.5,114.167 127.5,116.833 127.5,119.5C 130.167,119.5 132.833,119.5 135.5,119.5C 135.5,117.833 135.5,116.167 135.5,114.5C 139.862,114.756 144.195,114.923 148.5,115C 146.893,113.951 146.227,112.451 146.5,110.5 Z"/></g>
<g><path style="opacity:1" fill="#574a85" d="M 147.5,110.5 C 165.833,110.5 184.167,110.5 202.5,110.5C 193.692,111.832 184.525,112.498 175,112.5C 165.475,112.498 156.308,111.832 147.5,110.5 Z"/></g>
<g><path style="opacity:1" fill="#574b84" d="M 232.5,110.5 C 250.5,110.5 268.5,110.5 286.5,110.5C 278.193,111.831 269.527,112.498 260.5,112.5C 251.833,112.333 243.167,112.167 234.5,112C 233.584,111.722 232.918,111.222 232.5,110.5 Z"/></g>
<g><path style="opacity:1" fill="#574b85" d="M 316.5,110.5 C 334.833,110.5 353.167,110.5 371.5,110.5C 371.389,111.117 371.056,111.617 370.5,112C 352.833,112.667 335.167,112.667 317.5,112C 316.944,111.617 316.611,111.117 316.5,110.5 Z"/></g>
<g><path style="opacity:0.004" fill="#fefffe" d="M 10.5,119.5 C 11.8333,120.167 11.8333,120.167 10.5,119.5 Z"/></g>
<g><path style="opacity:0.004" fill="#fefffe" d="M 443.5,124.5 C 444.833,125.167 444.833,125.167 443.5,124.5 Z"/></g>
<g><path style="opacity:0.004" fill="#fefffe" d="M 37.5,136.5 C 38.8333,137.167 38.8333,137.167 37.5,136.5 Z"/></g>
<g><path style="opacity:0.004" fill="#fefffe" d="M 475.5,141.5 C 476.833,142.167 476.833,142.167 475.5,141.5 Z"/></g>
<g><path style="opacity:0.004" fill="#fefffe" d="M 86.5,143.5 C 87.8333,144.167 87.8333,144.167 86.5,143.5 Z"/></g>
<g><path style="opacity:0.004" fill="#fefffe" d="M 490.5,146.5 C 491.833,147.167 491.833,147.167 490.5,146.5 Z"/></g>
<g><path style="opacity:0.94" fill="#59549c" d="M 424.5,59.5 C 425.167,60.8333 425.833,62.1667 426.5,63.5C 426.5,64.8333 426.5,66.1667 426.5,67.5C 426.832,130.336 426.499,193.002 425.5,255.5C 425.5,212.833 425.5,170.167 425.5,127.5C 425.704,104.821 425.371,82.1543 424.5,59.5 Z"/></g>
<g><path style="opacity:1" fill="#544eae" d="M 119.5,25.5 C 117.5,27.8333 115.5,30.1667 113.5,32.5C 111.914,34.0808 110.914,36.0808 110.5,38.5C 108.183,40.316 106.016,42.316 104,44.5C 103.555,48.6139 104.055,52.6139 105.5,56.5C 105.167,57.8333 104.833,59.1667 104.5,60.5C 103.915,58.1352 102.748,56.1352 101,54.5C 99.9614,55.2438 99.4614,56.2438 99.5,57.5C 98.6909,59.2922 98.1909,61.2922 98,63.5C 97.2309,90.1812 97.3975,116.848 98.5,143.5C 100.099,143.768 101.432,143.434 102.5,142.5C 103.477,145.287 103.81,148.287 103.5,151.5C 118.215,151.8 132.882,151.467 147.5,150.5C 147.172,161.014 147.506,171.347 148.5,181.5C 166.167,181.5 183.833,181.5 201.5,181.5C 201.833,181.5 202.167,181.5 202.5,181.5C 203.494,171.013 203.828,160.346 203.5,149.5C 205.067,150.681 205.901,152.347 206,154.5C 206.75,155.126 207.584,155.626 208.5,156C 207.663,157.011 207.33,158.178 207.5,159.5C 213.093,159.193 218.593,159.527 224,160.5C 225.122,157.924 226.122,155.257 227,152.5C 228.734,150.549 230.901,149.549 233.5,149.5C 252.471,147.512 271.804,146.846 291.5,147.5C 292.8,152.65 292.8,157.817 291.5,163C 291.542,164.967 292.042,166.801 293,168.5C 294.456,164.01 295.456,159.344 296,154.5C 297,153.5 298,152.5 299,151.5C 300.08,153.553 300.914,155.72 301.5,158C 297.353,160.07 296.353,163.237 298.5,167.5C 299.5,167.5 300.5,167.5 301.5,167.5C 301.192,165.076 301.526,162.743 302.5,160.5C 304.532,158.278 306.198,155.778 307.5,153C 306.863,151.287 305.863,151.121 304.5,152.5C 303.643,151.264 302.977,149.931 302.5,148.5C 303.396,141.927 304.563,141.927 306,148.5C 307,146.833 308,145.167 309,143.5C 308.908,153.784 309.242,164.117 310,174.5C 310.478,167.159 310.978,159.826 311.5,152.5C 313.216,152.371 314.883,152.038 316.5,151.5C 316.18,162.082 316.513,172.582 317.5,183C 334.167,183.667 350.833,183.667 367.5,183C 369.382,182.802 371.048,182.302 372.5,181.5C 373.833,171.167 373.833,160.833 372.5,150.5C 372.5,150.167 372.5,149.833 372.5,149.5C 374.391,150.536 376.224,150.536 378,149.5C 378.667,148.833 378.667,148.167 378,147.5C 372.876,143.959 373.376,142.292 379.5,142.5C 379.08,147.663 380.08,152.496 382.5,157C 381.191,163.111 381.191,169.278 382.5,175.5C 383.549,172.92 384.216,170.254 384.5,167.5C 389.5,167.5 394.5,167.5 399.5,167.5C 399.575,164.794 399.908,162.127 400.5,159.5C 408.582,159.731 416.582,159.731 424.5,159.5C 424.667,180.836 424.5,202.169 424,223.5C 423.829,218.136 423.329,212.802 422.5,207.5C 420.779,214.179 420.112,220.846 420.5,227.5C 419.933,231.497 419.1,235.497 418,239.5C 417.484,231.447 416.651,223.447 415.5,215.5C 404.833,215.5 394.167,215.5 383.5,215.5C 383.874,210.703 383.208,210.036 381.5,213.5C 382.509,215.185 382.009,216.518 380,217.5C 376.775,215.739 373.275,215.072 369.5,215.5C 369.719,214.325 369.386,213.325 368.5,212.5C 352.338,214.465 336.005,215.132 319.5,214.5C 319.5,215.5 319.5,216.5 319.5,217.5C 335.837,217.333 352.17,217.5 368.5,218C 370.619,218.342 370.953,219.175 369.5,220.5C 352.211,219.361 334.877,219.195 317.5,220C 316.944,220.383 316.611,220.883 316.5,221.5C 312.164,224.332 310.997,223.332 313,218.5C 314.558,216.641 316.391,215.141 318.5,214C 317.646,212.978 316.646,212.145 315.5,211.5C 312.474,214.195 309.474,216.862 306.5,219.5C 307.939,221.343 307.772,223.01 306,224.5C 305.829,229.533 305.329,234.533 304.5,239.5C 302.13,238.524 301.13,239.524 301.5,242.5C 301.833,243.5 302.167,244.5 302.5,245.5C 304.027,243.807 305.36,241.973 306.5,240C 307.635,239.251 308.635,239.417 309.5,240.5C 307.372,245.314 305.705,250.314 304.5,255.5C 304.419,253.367 303.919,251.367 303,249.5C 301.872,251.345 301.372,253.345 301.5,255.5C 299.549,255.773 298.049,255.107 297,253.5C 295.088,246.3 295.255,239.133 297.5,232C 297.167,229.5 296.833,227 296.5,224.5C 295.914,224.291 295.414,223.957 295,223.5C 294.442,231.527 293.942,239.36 293.5,247C 294.104,249.887 294.771,252.72 295.5,255.5C 293.833,255.5 292.167,255.5 290.5,255.5C 291.58,243.86 291.746,232.193 291,220.5C 290.612,219.572 289.945,218.905 289,218.5C 271.821,219.174 254.655,219.84 237.5,220.5C 237.5,219.5 237.5,218.5 237.5,217.5C 254.513,217.833 271.513,217.499 288.5,216.5C 288.291,215.914 287.957,215.414 287.5,215C 282.249,214.196 277.082,214.363 272,215.5C 263.519,214.552 255.853,213.886 249,213.5C 243.734,214.248 238.568,215.248 233.5,216.5C 233.799,214.396 233.466,212.396 232.5,210.5C 223.819,207.046 214.986,206.713 206,209.5C 204.584,208.427 203.25,208.427 202,209.5C 201.506,211.134 201.34,212.801 201.5,214.5C 200.167,214.5 198.833,214.5 197.5,214.5C 198.833,212.167 198.833,209.833 197.5,207.5C 196.167,207.5 194.833,207.5 193.5,207.5C 193.5,208.833 193.5,210.167 193.5,211.5C 187.658,209.954 181.658,209.121 175.5,209C 175.833,208.667 176.167,208.333 176.5,208C 169.833,207.333 163.167,207.333 156.5,208C 156.833,208.333 157.167,208.667 157.5,209C 156.167,209.167 154.833,209.333 153.5,209.5C 147.603,207.896 141.603,207.229 135.5,207.5C 135.5,208.833 135.5,210.167 135.5,211.5C 130.167,211.5 124.833,211.5 119.5,211.5C 119.5,210.167 119.5,208.833 119.5,207.5C 114.167,207.5 108.833,207.5 103.5,207.5C 102.652,201.262 102.652,195.096 103.5,189C 102.953,188.075 102.287,187.242 101.5,186.5C 100.548,188.045 100.215,189.712 100.5,191.5C 100.144,197.077 99.1437,202.41 97.5,207.5C 96.5052,159.572 96.1718,111.572 96.5,63.5C 96.3379,61.4727 96.5045,59.4727 97,57.5C 99.6941,53.1211 101.527,48.4544 102.5,43.5C 104.727,42.5994 105.727,40.9328 105.5,38.5C 109.533,33.4663 114.2,29.1329 119.5,25.5 Z"/></g>
<g><path style="opacity:0.663" fill="#7370a1" d="M 426.5,67.5 C 427.499,177.999 427.833,288.665 427.5,399.5C 426.38,402.365 425.047,405.032 423.5,407.5C 423.344,403.418 423.844,399.418 425,395.5C 425.5,348.835 425.667,302.168 425.5,255.5C 426.499,193.002 426.832,130.336 426.5,67.5 Z"/></g>
<g><path style="opacity:0.153" fill="#b5b2d4" d="M 94.5,64.5 C 94.5,168.167 94.5,271.833 94.5,375.5C 93.8333,376.167 93.1667,376.833 92.5,377.5C 93.158,273.02 93.8247,168.687 94.5,64.5 Z"/></g>
<g><path style="opacity:0.681" fill="#706ba3" d="M 94.5,63.5 C 94.8333,63.5 95.1667,63.5 95.5,63.5C 95.5,111.5 95.5,159.5 95.5,207.5C 95.2199,230.189 95.5533,252.855 96.5,275.5C 96.2696,295.516 96.6029,315.516 97.5,335.5C 97.6666,348.837 97.4999,362.171 97,375.5C 96.454,378.379 95.6206,381.046 94.5,383.5C 94.5,380.833 94.5,378.167 94.5,375.5C 94.5,271.833 94.5,168.167 94.5,64.5C 94.5,64.1667 94.5,63.8333 94.5,63.5 Z"/></g>
<g><path style="opacity:0.004" fill="#fefffe" d="M 443.5,214.5 C 444.833,215.167 444.833,215.167 443.5,214.5 Z"/></g>
<g><path style="opacity:0.004" fill="#fefffe" d="M 80.5,237.5 C 81.8333,238.167 81.8333,238.167 80.5,237.5 Z"/></g>
<g><path style="opacity:0.004" fill="#fefffe" d="M 84.5,239.5 C 85.8333,240.167 85.8333,240.167 84.5,239.5 Z"/></g>
<g><path style="opacity:1" fill="#6058b0" d="M 95.5,63.5 C 95.8333,63.5 96.1667,63.5 96.5,63.5C 96.1718,111.572 96.5052,159.572 97.5,207.5C 98.6674,226.078 100.167,244.744 102,263.5C 102.256,260.443 102.756,257.443 103.5,254.5C 105.766,253.686 108.1,253.186 110.5,253C 111.406,251.301 111.739,249.467 111.5,247.5C 116.833,247.5 122.167,247.5 127.5,247.5C 127.181,245.25 127.681,243.25 129,241.5C 131.994,245.819 134.161,250.486 135.5,255.5C 139.29,256.101 142.456,255.101 145,252.5C 144.852,241.453 145.686,230.786 147.5,220.5C 147.5,220.833 147.5,221.167 147.5,221.5C 147.5,231.833 147.5,242.167 147.5,252.5C 147.5,252.833 147.5,253.167 147.5,253.5C 165.993,254.497 184.659,254.83 203.5,254.5C 189.205,256.483 174.538,257.15 159.5,256.5C 159.5,257.833 159.5,259.167 159.5,260.5C 167.5,260.5 175.5,260.5 183.5,260.5C 183.5,261.5 183.5,262.5 183.5,263.5C 199.483,262.831 215.483,262.831 231.5,263.5C 231.5,264.5 231.5,265.5 231.5,266.5C 234.167,266.5 236.833,266.5 239.5,266.5C 239.5,265.167 239.5,263.833 239.5,262.5C 252.86,262.275 266.194,261.609 279.5,260.5C 279.5,261.5 279.5,262.5 279.5,263.5C 292.482,262.673 305.482,262.339 318.5,262.5C 318.5,261.5 318.5,260.5 318.5,259.5C 319.461,261.265 319.795,263.265 319.5,265.5C 323.593,265.478 327.593,264.811 331.5,263.5C 356.114,265.089 380.781,266.089 405.5,266.5C 404.975,267.192 404.308,267.692 403.5,268C 404.793,268.49 406.127,268.657 407.5,268.5C 407.5,269.5 407.5,270.5 407.5,271.5C 408.5,271.5 409.5,271.5 410.5,271.5C 410.5,274.167 410.5,276.833 410.5,279.5C 412.167,279.5 413.833,279.5 415.5,279.5C 415.393,275.465 415.726,271.465 416.5,267.5C 416.61,265.626 415.944,264.126 414.5,263C 415.274,260.595 415.774,258.095 416,255.5C 418.091,260.581 419.258,265.914 419.5,271.5C 420.5,271.5 421.5,271.5 422.5,271.5C 422.299,268.272 422.633,265.105 423.5,262C 420.822,250.687 419.822,239.187 420.5,227.5C 420.112,220.846 420.779,214.179 422.5,207.5C 423.329,212.802 423.829,218.136 424,223.5C 424.5,202.169 424.667,180.836 424.5,159.5C 424.5,148.833 424.5,138.167 424.5,127.5C 424.833,127.5 425.167,127.5 425.5,127.5C 425.5,170.167 425.5,212.833 425.5,255.5C 424.512,260.64 424.179,265.974 424.5,271.5C 423.179,281.974 422.512,292.641 422.5,303.5C 420.5,303.5 418.5,303.5 416.5,303.5C 417.23,309.753 416.896,312.419 415.5,311.5C 404.833,311.5 394.167,311.5 383.5,311.5C 383.82,308.102 383.487,304.768 382.5,301.5C 381.505,307.128 381.171,312.794 381.5,318.5C 380.5,318.5 379.5,318.5 378.5,318.5C 378.663,316.143 378.497,313.81 378,311.5C 377.667,314.167 377.333,316.833 377,319.5C 376.171,314.136 376.337,308.802 377.5,303.5C 379.346,301.141 380.679,298.475 381.5,295.5C 380.167,295.5 378.833,295.5 377.5,295.5C 377.688,297.103 377.188,298.437 376,299.5C 375.809,297.292 375.309,295.292 374.5,293.5C 374.167,293.5 373.833,293.5 373.5,293.5C 373.5,292.833 373.5,292.167 373.5,291.5C 376.154,292.342 378.821,292.842 381.5,293C 382.641,292.259 382.641,291.425 381.5,290.5C 380,290.167 378.5,289.833 377,289.5C 356.515,290.447 336.015,290.78 315.5,290.5C 315.719,289.325 315.386,288.325 314.5,287.5C 313.295,289.859 313.628,292.026 315.5,294C 314.922,295.811 314.422,297.645 314,299.5C 313.581,298.328 312.915,297.328 312,296.5C 312.316,300.137 310.982,302.804 308,304.5C 307.047,324.444 305.38,324.444 303,304.5C 302.503,306.81 302.337,309.143 302.5,311.5C 300.833,311.5 299.167,311.5 297.5,311.5C 297.813,308.753 297.48,306.086 296.5,303.5C 295.914,303.709 295.414,304.043 295,304.5C 294.667,309.5 294.333,314.5 294,319.5C 293.667,319.167 293.333,318.833 293,318.5C 292.39,311.819 292.556,305.152 293.5,298.5C 293.681,295.837 293.015,293.503 291.5,291.5C 290.531,290.691 289.698,289.691 289,288.5C 271.404,290.478 253.57,291.145 235.5,290.5C 234.122,289.766 232.622,289.099 231,288.5C 229.89,290.037 228.39,290.703 226.5,290.5C 226.5,289.5 226.5,288.5 226.5,287.5C 220.74,289.42 214.74,290.42 208.5,290.5C 208.649,291.552 208.483,292.552 208,293.5C 207.667,291.833 207.333,290.167 207,288.5C 204.733,289.935 202.733,289.602 201,287.5C 200.326,288.578 199.326,289.245 198,289.5C 183.188,288.707 168.355,288.207 153.5,288C 158.167,287.667 162.833,287.333 167.5,287C 148.836,286.5 130.17,286.333 111.5,286.5C 111.5,283.5 111.5,280.5 111.5,277.5C 109.5,277.5 107.5,277.5 105.5,277.5C 105.5,278.5 105.5,279.5 105.5,280.5C 104.881,285.356 104.881,290.356 105.5,295.5C 104.5,295.5 103.5,295.5 102.5,295.5C 102.664,298.187 102.497,300.854 102,303.5C 100.645,292.611 99.3117,281.944 98,271.5C 97.4558,249.995 96.6225,228.662 95.5,207.5C 95.5,159.5 95.5,111.5 95.5,63.5 Z"/></g>
<g><path style="opacity:1" fill="#5954b0" d="M 420.5,227.5 C 419.822,239.187 420.822,250.687 423.5,262C 422.633,265.105 422.299,268.272 422.5,271.5C 421.5,271.5 420.5,271.5 419.5,271.5C 419.258,265.914 418.091,260.581 416,255.5C 415.774,258.095 415.274,260.595 414.5,263C 415.944,264.126 416.61,265.626 416.5,267.5C 415.726,271.465 415.393,275.465 415.5,279.5C 413.833,279.5 412.167,279.5 410.5,279.5C 410.5,276.833 410.5,274.167 410.5,271.5C 409.5,271.5 408.5,271.5 407.5,271.5C 407.5,270.5 407.5,269.5 407.5,268.5C 406.127,268.657 404.793,268.49 403.5,268C 404.308,267.692 404.975,267.192 405.5,266.5C 380.781,266.089 356.114,265.089 331.5,263.5C 327.593,264.811 323.593,265.478 319.5,265.5C 319.795,263.265 319.461,261.265 318.5,259.5C 318.461,257.641 319.294,256.308 321,255.5C 336.422,256.491 351.922,256.824 367.5,256.5C 367.5,257.5 367.5,258.5 367.5,259.5C 378.958,258.925 390.291,259.591 401.5,261.5C 404.337,260.491 405.67,258.491 405.5,255.5C 397.441,255.433 389.441,255.6 381.5,256C 382.308,255.692 382.975,255.192 383.5,254.5C 381.659,253.77 379.825,253.103 378,252.5C 377.667,253.167 377.333,253.833 377,254.5C 376.013,243.361 375.18,232.361 374.5,221.5C 374.167,221.5 373.833,221.5 373.5,221.5C 373.167,221.5 372.833,221.5 372.5,221.5C 371.791,220.596 370.791,220.263 369.5,220.5C 370.953,219.175 370.619,218.342 368.5,218C 352.17,217.5 335.837,217.333 319.5,217.5C 319.5,216.5 319.5,215.5 319.5,214.5C 336.005,215.132 352.338,214.465 368.5,212.5C 369.386,213.325 369.719,214.325 369.5,215.5C 373.275,215.072 376.775,215.739 380,217.5C 382.009,216.518 382.509,215.185 381.5,213.5C 383.208,210.036 383.874,210.703 383.5,215.5C 394.167,215.5 404.833,215.5 415.5,215.5C 416.651,223.447 417.484,231.447 418,239.5C 419.1,235.497 419.933,231.497 420.5,227.5 Z"/></g>
<g><path style="opacity:1" fill="#f9dc81" d="M 191.5,222.5 C 194.5,222.5 197.5,222.5 200.5,222.5C 200.5,232.167 200.5,241.833 200.5,251.5C 198.167,251.5 195.833,251.5 193.5,251.5C 193.762,250.022 193.429,248.689 192.5,247.5C 191.614,248.325 191.281,249.325 191.5,250.5C 177.833,250.5 164.167,250.5 150.5,250.5C 150.5,241.5 150.5,232.5 150.5,223.5C 164.344,223.829 178.01,223.496 191.5,222.5 Z"/></g>
<g><path style="opacity:1" fill="#d0bcb2" d="M 200.5,222.5 C 200.5,222.167 200.5,221.833 200.5,221.5C 202.476,231.781 203.143,242.448 202.5,253.5C 184.167,253.5 165.833,253.5 147.5,253.5C 147.5,253.167 147.5,252.833 147.5,252.5C 148.5,252.5 149.5,252.5 150.5,252.5C 167.5,252.5 184.5,252.5 201.5,252.5C 201.827,242.319 201.494,232.319 200.5,222.5 Z"/></g>
<g><path style="opacity:1" fill="#e4d1b2" d="M 147.5,221.5 C 165.167,221.5 182.833,221.5 200.5,221.5C 200.5,221.833 200.5,222.167 200.5,222.5C 197.5,222.5 194.5,222.5 191.5,222.5C 177.167,222.5 162.833,222.5 148.5,222.5C 147.86,232.558 148.527,242.225 150.5,251.5C 150.5,251.833 150.5,252.167 150.5,252.5C 149.5,252.5 148.5,252.5 147.5,252.5C 147.5,242.167 147.5,231.833 147.5,221.5 Z"/></g>
<g><path style="opacity:1" fill="#62568b" d="M 369.5,220.5 C 370.791,220.263 371.791,220.596 372.5,221.5C 354.5,221.5 336.5,221.5 318.5,221.5C 318.5,231.5 318.5,241.5 318.5,251.5C 318.5,252.167 318.5,252.833 318.5,253.5C 316.715,253.074 315.715,251.908 315.5,250C 316.435,240.53 316.768,231.03 316.5,221.5C 316.611,220.883 316.944,220.383 317.5,220C 334.877,219.195 352.211,219.361 369.5,220.5 Z"/></g>
<g><path style="opacity:1" fill="#5954b0" d="M 100.5,191.5 C 100.667,202.18 101.167,212.846 102,223.5C 102.829,212.854 103.329,212.854 103.5,223.5C 116.833,223.5 130.167,223.5 143.5,223.5C 143.334,228.844 143.501,234.177 144,239.5C 144.5,232.842 144.666,226.175 144.5,219.5C 147.385,219.194 150.052,219.527 152.5,220.5C 150.833,220.5 149.167,220.5 147.5,220.5C 145.686,230.786 144.852,241.453 145,252.5C 142.456,255.101 139.29,256.101 135.5,255.5C 134.161,250.486 131.994,245.819 129,241.5C 127.681,243.25 127.181,245.25 127.5,247.5C 122.167,247.5 116.833,247.5 111.5,247.5C 111.739,249.467 111.406,251.301 110.5,253C 108.1,253.186 105.766,253.686 103.5,254.5C 102.756,257.443 102.256,260.443 102,263.5C 100.167,244.744 98.6674,226.078 97.5,207.5C 99.1437,202.41 100.144,197.077 100.5,191.5 Z"/></g>
<g><path style="opacity:1" fill="#5652b0" d="M 237.5,220.5 C 235.901,220.232 234.568,220.566 233.5,221.5C 232.5,221.5 231.5,221.5 230.5,221.5C 230.64,230.377 230.64,239.043 230.5,247.5C 229.176,246.15 228.176,246.317 227.5,248C 228.976,250.349 228.81,252.516 227,254.5C 220.301,255.487 213.468,255.487 206.5,254.5C 204.965,242.375 205.298,230.375 207.5,218.5C 205.517,218.157 204.183,218.824 203.5,220.5C 186.5,220.5 169.5,220.5 152.5,220.5C 150.052,219.527 147.385,219.194 144.5,219.5C 144.666,226.175 144.5,232.842 144,239.5C 143.501,234.177 143.334,228.844 143.5,223.5C 130.167,223.5 116.833,223.5 103.5,223.5C 103.329,212.854 102.829,212.854 102,223.5C 101.167,212.846 100.667,202.18 100.5,191.5C 100.215,189.712 100.548,188.045 101.5,186.5C 102.287,187.242 102.953,188.075 103.5,189C 102.652,195.096 102.652,201.262 103.5,207.5C 108.833,207.5 114.167,207.5 119.5,207.5C 119.5,208.833 119.5,210.167 119.5,211.5C 124.833,211.5 130.167,211.5 135.5,211.5C 135.5,210.167 135.5,208.833 135.5,207.5C 141.603,207.229 147.603,207.896 153.5,209.5C 154.833,209.333 156.167,209.167 157.5,209C 157.167,208.667 156.833,208.333 156.5,208C 163.167,207.333 169.833,207.333 176.5,208C 176.167,208.333 175.833,208.667 175.5,209C 181.658,209.121 187.658,209.954 193.5,211.5C 193.5,210.167 193.5,208.833 193.5,207.5C 194.833,207.5 196.167,207.5 197.5,207.5C 198.833,209.833 198.833,212.167 197.5,214.5C 198.833,214.5 200.167,214.5 201.5,214.5C 201.34,212.801 201.506,211.134 202,209.5C 203.25,208.427 204.584,208.427 206,209.5C 214.986,206.713 223.819,207.046 232.5,210.5C 233.466,212.396 233.799,214.396 233.5,216.5C 238.568,215.248 243.734,214.248 249,213.5C 255.853,213.886 263.519,214.552 272,215.5C 277.082,214.363 282.249,214.196 287.5,215C 287.957,215.414 288.291,215.914 288.5,216.5C 271.513,217.499 254.513,217.833 237.5,217.5C 237.5,218.5 237.5,219.5 237.5,220.5 Z"/></g>
<g><path style="opacity:1" fill="#62538d" d="M 372.5,149.5 C 372.5,149.833 372.5,150.167 372.5,150.5C 354.5,150.5 336.5,150.5 318.5,150.5C 318.5,160.833 318.5,171.167 318.5,181.5C 336.5,181.5 354.5,181.5 372.5,181.5C 371.048,182.302 369.382,182.802 367.5,183C 350.833,183.667 334.167,183.667 317.5,183C 316.513,172.582 316.18,162.082 316.5,151.5C 316.511,149.983 317.177,148.816 318.5,148C 336.167,147.333 353.833,147.333 371.5,148C 372.056,148.383 372.389,148.883 372.5,149.5 Z"/></g>
<g><path style="opacity:1" fill="#655692" d="M 233.5,150.5 C 233.5,160.833 233.5,171.167 233.5,181.5C 251.5,181.5 269.5,181.5 287.5,181.5C 287.082,182.222 286.416,182.722 285.5,183C 267.135,183.401 248.801,183.734 230.5,184C 230.824,172.53 231.824,161.364 233.5,150.5 Z"/></g>
<g><path style="opacity:1" fill="#dfcdb2" d="M 372.5,150.5 C 373.833,160.833 373.833,171.167 372.5,181.5C 354.5,181.5 336.5,181.5 318.5,181.5C 318.5,171.167 318.5,160.833 318.5,150.5C 336.5,150.5 354.5,150.5 372.5,150.5 Z"/></g>
<g><path style="opacity:1" fill="#ecd8b7" d="M 233.5,150.5 C 251.5,150.5 269.5,150.5 287.5,150.5C 287.5,160.833 287.5,171.167 287.5,181.5C 269.5,181.5 251.5,181.5 233.5,181.5C 233.5,171.167 233.5,160.833 233.5,150.5 Z"/></g>
<g><path style="opacity:1" fill="#f3db93" d="M 319.5,151.5 C 336.833,151.5 354.167,151.5 371.5,151.5C 371.5,161.167 371.5,170.833 371.5,180.5C 354.167,180.5 336.833,180.5 319.5,180.5C 319.5,170.833 319.5,161.167 319.5,151.5 Z"/></g>
<g><path style="opacity:1" fill="#6f5e76" d="M 147.5,150.5 C 147.5,150.167 147.5,149.833 147.5,149.5C 166.167,149.5 184.833,149.5 203.5,149.5C 203.828,160.346 203.494,171.013 202.5,181.5C 202.5,171.167 202.5,160.833 202.5,150.5C 184.167,150.5 165.833,150.5 147.5,150.5 Z"/></g>
<g><path style="opacity:1" fill="#716381" d="M 233.5,150.5 C 233.5,150.167 233.5,149.833 233.5,149.5C 251.833,149.5 270.167,149.5 288.5,149.5C 288.828,160.346 288.494,171.013 287.5,181.5C 287.5,171.167 287.5,160.833 287.5,150.5C 269.5,150.5 251.5,150.5 233.5,150.5 Z"/></g>
<g><path style="opacity:1" fill="#f9dc81" d="M 320.5,152.5 C 337.167,152.5 353.833,152.5 370.5,152.5C 370.5,161.5 370.5,170.5 370.5,179.5C 353.833,179.5 337.167,179.5 320.5,179.5C 320.5,170.5 320.5,161.5 320.5,152.5 Z"/></g>
<g><path style="opacity:1" fill="#f7db8a" d="M 239.5,180.5 C 254.006,179.833 268.672,179.167 283.5,178.5C 281.252,177.676 281.086,176.676 283,175.5C 283.357,169.053 283.524,162.72 283.5,156.5C 283.291,155.914 282.957,155.414 282.5,155C 267.468,154.785 252.468,154.285 237.5,153.5C 236.457,162.572 236.124,171.572 236.5,180.5C 234.527,171.225 233.86,161.558 234.5,151.5C 251.833,151.5 269.167,151.5 286.5,151.5C 286.5,161.167 286.5,170.833 286.5,180.5C 270.833,180.5 255.167,180.5 239.5,180.5 Z"/></g>
<g><path style="opacity:1" fill="#fadc80" d="M 239.5,180.5 C 238.5,180.5 237.5,180.5 236.5,180.5C 236.124,171.572 236.457,162.572 237.5,153.5C 252.468,154.285 267.468,154.785 282.5,155C 282.957,155.414 283.291,155.914 283.5,156.5C 283.524,162.72 283.357,169.053 283,175.5C 281.086,176.676 281.252,177.676 283.5,178.5C 268.672,179.167 254.006,179.833 239.5,180.5 Z"/></g>
<g><path style="opacity:1" fill="#e4ceb7" d="M 147.5,150.5 C 165.833,150.5 184.167,150.5 202.5,150.5C 202.5,160.833 202.5,171.167 202.5,181.5C 202.167,181.5 201.833,181.5 201.5,181.5C 201.826,172.651 201.493,163.984 200.5,155.5C 200.5,154.167 200.5,152.833 200.5,151.5C 183.167,151.5 165.833,151.5 148.5,151.5C 148.5,161.167 148.5,170.833 148.5,180.5C 148.5,180.833 148.5,181.167 148.5,181.5C 147.506,171.347 147.172,161.014 147.5,150.5 Z"/></g>
<g><path style="opacity:1" fill="#eedbb2" d="M 200.5,155.5 C 201.493,163.984 201.826,172.651 201.5,181.5C 183.833,181.5 166.167,181.5 148.5,181.5C 148.5,181.167 148.5,180.833 148.5,180.5C 165.833,180.5 183.167,180.5 200.5,180.5C 200.5,172.167 200.5,163.833 200.5,155.5 Z"/></g>
<g><path style="opacity:1" fill="#f4db8f" d="M 200.5,155.5 C 200.5,163.833 200.5,172.167 200.5,180.5C 183.167,180.5 165.833,180.5 148.5,180.5C 148.5,170.833 148.5,161.167 148.5,151.5C 165.833,151.5 183.167,151.5 200.5,151.5C 200.5,152.833 200.5,154.167 200.5,155.5 Z"/></g>
<g><path style="opacity:1" fill="#fadc81" d="M 150.5,152.5 C 168.199,152.156 183.199,152.49 195.5,153.5C 195.201,155.604 195.534,157.604 196.5,159.5C 197.478,159.023 198.311,158.357 199,157.5C 199.5,164.826 199.666,172.159 199.5,179.5C 182.777,179.331 166.111,179.331 149.5,179.5C 149.252,170.46 149.585,161.46 150.5,152.5 Z"/></g>
<g><path style="opacity:1" fill="#524a9d" d="M 203.5,149.5 C 184.833,149.5 166.167,149.5 147.5,149.5C 150.488,147.86 153.821,147.026 157.5,147C 156.829,143.035 157.829,142.702 160.5,146C 174.523,146.237 188.523,146.904 202.5,148C 203.056,148.383 203.389,148.883 203.5,149.5 Z"/></g>
<g><path style="opacity:1" fill="#5d56af" d="M 316.5,221.5 C 316.768,231.03 316.435,240.53 315.5,250C 315.715,251.908 316.715,253.074 318.5,253.5C 336.662,254.662 354.995,254.829 373.5,254C 374.487,243.248 374.82,232.415 374.5,221.5C 375.18,232.361 376.013,243.361 377,254.5C 377.333,253.833 377.667,253.167 378,252.5C 379.825,253.103 381.659,253.77 383.5,254.5C 382.975,255.192 382.308,255.692 381.5,256C 389.441,255.6 397.441,255.433 405.5,255.5C 405.67,258.491 404.337,260.491 401.5,261.5C 390.291,259.591 378.958,258.925 367.5,259.5C 367.5,258.5 367.5,257.5 367.5,256.5C 351.922,256.824 336.422,256.491 321,255.5C 319.294,256.308 318.461,257.641 318.5,259.5C 318.5,260.5 318.5,261.5 318.5,262.5C 305.482,262.339 292.482,262.673 279.5,263.5C 279.5,262.5 279.5,261.5 279.5,260.5C 266.194,261.609 252.86,262.275 239.5,262.5C 239.5,263.833 239.5,265.167 239.5,266.5C 236.833,266.5 234.167,266.5 231.5,266.5C 231.5,265.5 231.5,264.5 231.5,263.5C 215.483,262.831 199.483,262.831 183.5,263.5C 183.5,262.5 183.5,261.5 183.5,260.5C 175.5,260.5 167.5,260.5 159.5,260.5C 159.5,259.167 159.5,257.833 159.5,256.5C 174.538,257.15 189.205,256.483 203.5,254.5C 204.819,243.069 204.819,231.735 203.5,220.5C 204.183,218.824 205.517,218.157 207.5,218.5C 205.298,230.375 204.965,242.375 206.5,254.5C 213.468,255.487 220.301,255.487 227,254.5C 228.81,252.516 228.976,250.349 227.5,248C 228.176,246.317 229.176,246.15 230.5,247.5C 229.908,250.631 230.908,252.964 233.5,254.5C 252.326,255.497 271.326,255.83 290.5,255.5C 292.167,255.5 293.833,255.5 295.5,255.5C 294.771,252.72 294.104,249.887 293.5,247C 293.942,239.36 294.442,231.527 295,223.5C 295.414,223.957 295.914,224.291 296.5,224.5C 296.833,227 297.167,229.5 297.5,232C 295.255,239.133 295.088,246.3 297,253.5C 298.049,255.107 299.549,255.773 301.5,255.5C 301.372,253.345 301.872,251.345 303,249.5C 303.919,251.367 304.419,253.367 304.5,255.5C 305.705,250.314 307.372,245.314 309.5,240.5C 308.635,239.417 307.635,239.251 306.5,240C 305.36,241.973 304.027,243.807 302.5,245.5C 302.167,244.5 301.833,243.5 301.5,242.5C 301.13,239.524 302.13,238.524 304.5,239.5C 305.329,234.533 305.829,229.533 306,224.5C 307.772,223.01 307.939,221.343 306.5,219.5C 309.474,216.862 312.474,214.195 315.5,211.5C 316.646,212.145 317.646,212.978 318.5,214C 316.391,215.141 314.558,216.641 313,218.5C 310.997,223.332 312.164,224.332 316.5,221.5 Z"/></g>
<g><path style="opacity:1" fill="#6a5f93" d="M 233.5,221.5 C 233.5,232.167 233.5,242.833 233.5,253.5C 251.5,253.5 269.5,253.5 287.5,253.5C 269.674,254.497 251.674,254.83 233.5,254.5C 230.908,252.964 229.908,250.631 230.5,247.5C 230.64,239.043 230.64,230.377 230.5,221.5C 231.5,221.5 232.5,221.5 233.5,221.5 Z"/></g>
<g><path style="opacity:1" fill="#f5db98" d="M 371.5,252.5 C 353.992,252.83 336.659,252.497 319.5,251.5C 319.5,241.833 319.5,232.167 319.5,222.5C 336.833,222.5 354.167,222.5 371.5,222.5C 371.5,232.5 371.5,242.5 371.5,252.5 Z"/></g>
<g><path style="opacity:1" fill="#dbcaaf" d="M 372.5,221.5 C 372.833,221.5 373.167,221.5 373.5,221.5C 373.828,232.014 373.494,242.347 372.5,252.5C 372.167,252.5 371.833,252.5 371.5,252.5C 371.5,242.5 371.5,232.5 371.5,222.5C 354.167,222.5 336.833,222.5 319.5,222.5C 319.5,232.167 319.5,241.833 319.5,251.5C 319.167,251.5 318.833,251.5 318.5,251.5C 318.5,241.5 318.5,231.5 318.5,221.5C 336.5,221.5 354.5,221.5 372.5,221.5 Z"/></g>
<g><path style="opacity:1" fill="#f9dc81" d="M 320.5,223.5 C 337.167,223.5 353.833,223.5 370.5,223.5C 370.5,232.5 370.5,241.5 370.5,250.5C 353.833,250.5 337.167,250.5 320.5,250.5C 320.5,241.5 320.5,232.5 320.5,223.5 Z"/></g>
<g><path style="opacity:1" fill="#e2cdac" d="M 233.5,221.5 C 251.5,221.5 269.5,221.5 287.5,221.5C 287.5,232.167 287.5,242.833 287.5,253.5C 269.5,253.5 251.5,253.5 233.5,253.5C 233.5,242.833 233.5,232.167 233.5,221.5 Z"/></g>
<g><path style="opacity:1" fill="#f9dc81" d="M 286.5,241.5 C 286.5,242.167 286.5,242.833 286.5,243.5C 284.95,245.3 283.95,247.467 283.5,250C 267.503,250.5 251.503,250.667 235.5,250.5C 235.5,241.5 235.5,232.5 235.5,223.5C 252.167,223.5 268.833,223.5 285.5,223.5C 285.177,229.69 285.51,235.69 286.5,241.5 Z"/></g>
<g><path style="opacity:1" fill="#5f569a" d="M 290.5,255.5 C 271.326,255.83 252.326,255.497 233.5,254.5C 251.674,254.83 269.674,254.497 287.5,253.5C 287.5,242.833 287.5,232.167 287.5,221.5C 269.5,221.5 251.5,221.5 233.5,221.5C 234.568,220.566 235.901,220.232 237.5,220.5C 254.655,219.84 271.821,219.174 289,218.5C 289.945,218.905 290.612,219.572 291,220.5C 291.746,232.193 291.58,243.86 290.5,255.5 Z"/></g>
<g><path style="opacity:1" fill="#f5db91" d="M 191.5,222.5 C 178.01,223.496 164.344,223.829 150.5,223.5C 150.5,232.5 150.5,241.5 150.5,250.5C 164.167,250.5 177.833,250.5 191.5,250.5C 191.281,249.325 191.614,248.325 192.5,247.5C 193.429,248.689 193.762,250.022 193.5,251.5C 179.167,251.5 164.833,251.5 150.5,251.5C 148.527,242.225 147.86,232.558 148.5,222.5C 162.833,222.5 177.167,222.5 191.5,222.5 Z"/></g>
<g><path style="opacity:1" fill="#f6db8f" d="M 286.5,241.5 C 285.51,235.69 285.177,229.69 285.5,223.5C 268.833,223.5 252.167,223.5 235.5,223.5C 235.5,232.5 235.5,241.5 235.5,250.5C 251.503,250.667 267.503,250.5 283.5,250C 283.95,247.467 284.95,245.3 286.5,243.5C 286.5,246.167 286.5,248.833 286.5,251.5C 269.167,251.5 251.833,251.5 234.5,251.5C 234.5,241.833 234.5,232.167 234.5,222.5C 251.833,222.5 269.167,222.5 286.5,222.5C 286.5,228.833 286.5,235.167 286.5,241.5 Z"/></g>
<g><path style="opacity:1" fill="#f1d9a7" d="M 200.5,222.5 C 201.494,232.319 201.827,242.319 201.5,252.5C 184.5,252.5 167.5,252.5 150.5,252.5C 150.5,252.167 150.5,251.833 150.5,251.5C 164.833,251.5 179.167,251.5 193.5,251.5C 195.833,251.5 198.167,251.5 200.5,251.5C 200.5,241.833 200.5,232.167 200.5,222.5 Z"/></g>
<g><path style="opacity:1" fill="#b2a199" d="M 318.5,251.5 C 318.833,251.5 319.167,251.5 319.5,251.5C 336.659,252.497 353.992,252.83 371.5,252.5C 371.833,252.5 372.167,252.5 372.5,252.5C 354.674,253.497 336.674,253.83 318.5,253.5C 318.5,252.833 318.5,252.167 318.5,251.5 Z"/></g>
<g><path style="opacity:1" fill="#655883" d="M 147.5,221.5 C 147.5,221.167 147.5,220.833 147.5,220.5C 149.167,220.5 150.833,220.5 152.5,220.5C 169.5,220.5 186.5,220.5 203.5,220.5C 204.819,231.735 204.819,243.069 203.5,254.5C 184.659,254.83 165.993,254.497 147.5,253.5C 165.833,253.5 184.167,253.5 202.5,253.5C 203.143,242.448 202.476,231.781 200.5,221.5C 182.833,221.5 165.167,221.5 147.5,221.5 Z"/></g>
<g><path style="opacity:1" fill="#625888" d="M 373.5,221.5 C 373.833,221.5 374.167,221.5 374.5,221.5C 374.82,232.415 374.487,243.248 373.5,254C 354.995,254.829 336.662,254.662 318.5,253.5C 336.674,253.83 354.674,253.497 372.5,252.5C 373.494,242.347 373.828,232.014 373.5,221.5 Z"/></g>
<g><path style="opacity:0.004" fill="#fefffe" d="M 83.5,256.5 C 84.8333,257.167 84.8333,257.167 83.5,256.5 Z"/></g>
<g><path style="opacity:0.161" fill="#bab9d2" d="M 426.5,63.5 C 427.268,64.2625 427.768,65.2625 428,66.5C 428.232,158.002 428.732,249.502 429.5,341C 429.309,360.677 428.643,380.177 427.5,399.5C 427.833,288.665 427.499,177.999 426.5,67.5C 426.5,66.1667 426.5,64.8333 426.5,63.5 Z"/></g>
<g><path style="opacity:0.004" fill="#fefffe" d="M 451.5,284.5 C 452.833,285.167 452.833,285.167 451.5,284.5 Z"/></g>
<g><path style="opacity:1" fill="#675eaf" d="M 95.5,207.5 C 96.6225,228.662 97.4558,249.995 98,271.5C 99.3117,281.944 100.645,292.611 102,303.5C 102.497,300.854 102.664,298.187 102.5,295.5C 103.5,295.5 104.5,295.5 105.5,295.5C 104.881,290.356 104.881,285.356 105.5,280.5C 106.117,280.389 106.617,280.056 107,279.5C 108.306,280.912 109.14,282.579 109.5,284.5C 108.033,288.032 107.366,291.698 107.5,295.5C 108.833,295.5 110.167,295.5 111.5,295.5C 111.5,298.167 111.5,300.833 111.5,303.5C 121.833,303.5 132.167,303.5 142.5,303.5C 142.34,301.801 142.506,300.134 143,298.5C 143.737,296.404 144.903,294.737 146.5,293.5C 146.333,305.505 146.5,317.505 147,329.5C 150.01,332.57 151.843,331.903 152.5,327.5C 157.195,327.974 158.528,330.308 156.5,334.5C 155.667,334.833 154.833,335.167 154,335.5C 152.009,334.237 150.009,332.903 148,331.5C 147.261,332.574 146.261,333.241 145,333.5C 143.208,332.963 141.375,332.63 139.5,332.5C 129.598,334.411 119.598,335.411 109.5,335.5C 107.167,335.5 104.833,335.5 102.5,335.5C 102.666,340.511 102.499,345.511 102,350.5C 101.667,350.833 101.333,351.167 101,351.5C 100.501,347.486 100.667,343.486 101.5,339.5C 100.083,332.578 99.2492,325.578 99,318.5C 98.6667,318.833 98.3333,319.167 98,319.5C 97.8313,304.661 97.3313,289.994 96.5,275.5C 95.5533,252.855 95.2199,230.189 95.5,207.5 Z"/></g>
<g><path style="opacity:0.004" fill="#fefffe" d="M 485.5,299.5 C 486.833,300.167 486.833,300.167 485.5,299.5 Z"/></g>
<g><path style="opacity:0.004" fill="#fefffe" d="M 74.5,304.5 C 75.8333,305.167 75.8333,305.167 74.5,304.5 Z"/></g>
<g><path style="opacity:1" fill="#6d64b1" d="M 424.5,271.5 C 424.675,311.506 424.342,351.506 423.5,391.5C 421.92,388.818 420.754,385.818 420,382.5C 419.782,379.574 419.282,376.74 418.5,374C 418.833,373.667 419.167,373.333 419.5,373C 416.691,370.944 415.358,371.777 415.5,375.5C 412.833,375.5 410.167,375.5 407.5,375.5C 407.5,374.5 407.5,373.5 407.5,372.5C 399.5,372.5 391.5,372.5 383.5,372.5C 383.5,373.5 383.5,374.5 383.5,375.5C 372.833,375.5 362.167,375.5 351.5,375.5C 351.5,372.833 351.5,370.167 351.5,367.5C 346.167,367.5 340.833,367.5 335.5,367.5C 335.5,368.5 335.5,369.5 335.5,370.5C 332.833,370.5 330.167,370.5 327.5,370.5C 327.5,371.5 327.5,372.5 327.5,373.5C 330.247,373.187 332.914,373.52 335.5,374.5C 308.842,375.5 282.175,375.833 255.5,375.5C 255.5,372.833 255.5,370.167 255.5,367.5C 244.833,367.5 234.167,367.5 223.5,367.5C 223.5,366.5 223.5,365.5 223.5,364.5C 220.833,364.5 218.167,364.5 215.5,364.5C 215.5,365.5 215.5,366.5 215.5,367.5C 204.833,367.5 194.167,367.5 183.5,367.5C 183.5,366.5 183.5,365.5 183.5,364.5C 175.5,364.5 167.5,364.5 159.5,364.5C 159.5,365.5 159.5,366.5 159.5,367.5C 148.313,368.113 137.313,367.446 126.5,365.5C 125.692,365.808 125.025,366.308 124.5,367C 120.179,367.499 115.846,367.666 111.5,367.5C 111.5,366.5 111.5,365.5 111.5,364.5C 108.833,364.5 106.167,364.5 103.5,364.5C 103.778,366.346 103.111,367.68 101.5,368.5C 101.167,367 100.833,365.5 100.5,364C 100.295,354.12 99.2946,344.62 97.5,335.5C 96.6029,315.516 96.2696,295.516 96.5,275.5C 97.3313,289.994 97.8313,304.661 98,319.5C 98.3333,319.167 98.6667,318.833 99,318.5C 99.2492,325.578 100.083,332.578 101.5,339.5C 100.667,343.486 100.501,347.486 101,351.5C 101.333,351.167 101.667,350.833 102,350.5C 102.499,345.511 102.666,340.511 102.5,335.5C 104.833,335.5 107.167,335.5 109.5,335.5C 109.5,339.167 109.5,342.833 109.5,346.5C 108.167,346.5 106.833,346.5 105.5,346.5C 105.5,347.5 105.5,348.5 105.5,349.5C 108.32,349.248 110.986,349.748 113.5,351C 112.692,351.308 112.025,351.808 111.5,352.5C 124.827,353.722 138.161,354.722 151.5,355.5C 151.185,353.774 151.019,352.107 151,350.5C 153.667,350.5 156.333,350.5 159,350.5C 159.498,353.482 159.665,356.482 159.5,359.5C 174.242,360.029 188.908,359.363 203.5,357.5C 215.558,359.174 227.558,361.174 239.5,363.5C 250.145,362.28 260.812,361.28 271.5,360.5C 266.208,359.505 260.875,359.172 255.5,359.5C 255.425,356.794 255.092,354.127 254.5,351.5C 273.476,350.451 292.476,349.784 311.5,349.5C 346.159,350.666 380.826,351.333 415.5,351.5C 418.167,351.5 420.833,351.5 423.5,351.5C 422.634,335.517 422.3,319.517 422.5,303.5C 422.512,292.641 423.179,281.974 424.5,271.5 Z"/></g>
<g><path style="opacity:1" fill="#6c62b0" d="M 146.5,293.5 C 146.833,293.5 147.167,293.5 147.5,293.5C 147.5,303.833 147.5,314.167 147.5,324.5C 147.611,325.117 147.944,325.617 148.5,326C 166.671,326.829 184.671,326.662 202.5,325.5C 204.472,316.56 205.139,307.227 204.5,297.5C 205.5,297.5 206.5,297.5 207.5,297.5C 206.87,305.842 206.203,314.175 205.5,322.5C 205.826,326.884 205.492,331.217 204.5,335.5C 202.605,333.368 200.438,333.034 198,334.5C 195.432,330.24 193.932,330.574 193.5,335.5C 187.5,335.5 181.5,335.5 175.5,335.5C 175.5,336.5 175.5,337.5 175.5,338.5C 199.509,338.9 223.509,339.567 247.5,340.5C 247.5,341.5 247.5,342.5 247.5,343.5C 250.167,343.5 252.833,343.5 255.5,343.5C 255.5,342.5 255.5,341.5 255.5,340.5C 258.167,340.5 260.833,340.5 263.5,340.5C 263.5,341.5 263.5,342.5 263.5,343.5C 270.267,343.821 276.934,343.154 283.5,341.5C 295.441,343.164 307.441,343.831 319.5,343.5C 319.5,342.5 319.5,341.5 319.5,340.5C 330.167,340.5 340.833,340.5 351.5,340.5C 351.5,342.5 351.5,344.5 351.5,346.5C 372.829,345.389 394.163,345.389 415.5,346.5C 415.5,348.167 415.5,349.833 415.5,351.5C 380.826,351.333 346.159,350.666 311.5,349.5C 292.476,349.784 273.476,350.451 254.5,351.5C 255.092,354.127 255.425,356.794 255.5,359.5C 260.875,359.172 266.208,359.505 271.5,360.5C 260.812,361.28 250.145,362.28 239.5,363.5C 227.558,361.174 215.558,359.174 203.5,357.5C 188.908,359.363 174.242,360.029 159.5,359.5C 159.665,356.482 159.498,353.482 159,350.5C 156.333,350.5 153.667,350.5 151,350.5C 151.019,352.107 151.185,353.774 151.5,355.5C 138.161,354.722 124.827,353.722 111.5,352.5C 112.025,351.808 112.692,351.308 113.5,351C 110.986,349.748 108.32,349.248 105.5,349.5C 105.5,348.5 105.5,347.5 105.5,346.5C 106.833,346.5 108.167,346.5 109.5,346.5C 109.5,342.833 109.5,339.167 109.5,335.5C 119.598,335.411 129.598,334.411 139.5,332.5C 141.375,332.63 143.208,332.963 145,333.5C 146.261,333.241 147.261,332.574 148,331.5C 150.009,332.903 152.009,334.237 154,335.5C 154.833,335.167 155.667,334.833 156.5,334.5C 158.528,330.308 157.195,327.974 152.5,327.5C 151.843,331.903 150.01,332.57 147,329.5C 146.5,317.505 146.333,305.505 146.5,293.5 Z"/></g>
<g><path style="opacity:1" fill="#7e6d89" d="M 147.5,324.5 C 165.833,324.5 184.167,324.5 202.5,324.5C 202.5,324.833 202.5,325.167 202.5,325.5C 184.671,326.662 166.671,326.829 148.5,326C 147.944,325.617 147.611,325.117 147.5,324.5 Z"/></g>
<g><path style="opacity:1" fill="#e5d1b1" d="M 147.5,293.5 C 165.833,293.5 184.167,293.5 202.5,293.5C 202.5,303.833 202.5,314.167 202.5,324.5C 184.167,324.5 165.833,324.5 147.5,324.5C 147.5,314.167 147.5,303.833 147.5,293.5 Z"/></g>
<g><path style="opacity:1" fill="#675faf" d="M 373.5,291.5 C 354.83,291.333 336.164,291.5 317.5,292C 316.171,302.265 316.171,312.431 317.5,322.5C 317.5,323.833 317.5,325.167 317.5,326.5C 336.17,326.667 354.836,326.5 373.5,326C 374.487,315.248 374.82,304.415 374.5,293.5C 375.309,295.292 375.809,297.292 376,299.5C 377.188,298.437 377.688,297.103 377.5,295.5C 378.833,295.5 380.167,295.5 381.5,295.5C 380.679,298.475 379.346,301.141 377.5,303.5C 376.337,308.802 376.171,314.136 377,319.5C 377.333,316.833 377.667,314.167 378,311.5C 378.497,313.81 378.663,316.143 378.5,318.5C 379.5,318.5 380.5,318.5 381.5,318.5C 381.171,312.794 381.505,307.128 382.5,301.5C 383.487,304.768 383.82,308.102 383.5,311.5C 394.167,311.5 404.833,311.5 415.5,311.5C 416.896,312.419 417.23,309.753 416.5,303.5C 418.5,303.5 420.5,303.5 422.5,303.5C 422.3,319.517 422.634,335.517 423.5,351.5C 420.833,351.5 418.167,351.5 415.5,351.5C 415.5,349.833 415.5,348.167 415.5,346.5C 394.163,345.389 372.829,345.389 351.5,346.5C 351.5,344.5 351.5,342.5 351.5,340.5C 340.833,340.5 330.167,340.5 319.5,340.5C 319.5,341.5 319.5,342.5 319.5,343.5C 307.441,343.831 295.441,343.164 283.5,341.5C 276.934,343.154 270.267,343.821 263.5,343.5C 263.5,342.5 263.5,341.5 263.5,340.5C 260.833,340.5 258.167,340.5 255.5,340.5C 255.5,341.5 255.5,342.5 255.5,343.5C 252.833,343.5 250.167,343.5 247.5,343.5C 247.5,342.5 247.5,341.5 247.5,340.5C 223.509,339.567 199.509,338.9 175.5,338.5C 175.5,337.5 175.5,336.5 175.5,335.5C 181.5,335.5 187.5,335.5 193.5,335.5C 193.932,330.574 195.432,330.24 198,334.5C 200.438,333.034 202.605,333.368 204.5,335.5C 205.492,331.217 205.826,326.884 205.5,322.5C 207.414,319.316 208.08,315.649 207.5,311.5C 212.833,311.5 218.167,311.5 223.5,311.5C 223.183,308.428 223.516,305.428 224.5,302.5C 226.167,304.167 227.167,303.833 227.5,301.5C 227.113,299.726 226.447,298.059 225.5,296.5C 226.689,295.571 228.022,295.238 229.5,295.5C 229.343,296.873 229.51,298.207 230,299.5C 230.24,297.148 231.073,295.148 232.5,293.5C 232.5,304.5 232.5,315.5 232.5,326.5C 250.833,326.5 269.167,326.5 287.5,326.5C 290.05,326.116 291.383,324.616 291.5,322C 290.525,311.623 290.525,301.457 291.5,291.5C 293.015,293.503 293.681,295.837 293.5,298.5C 292.556,305.152 292.39,311.819 293,318.5C 293.333,318.833 293.667,319.167 294,319.5C 294.333,314.5 294.667,309.5 295,304.5C 295.414,304.043 295.914,303.709 296.5,303.5C 297.48,306.086 297.813,308.753 297.5,311.5C 299.167,311.5 300.833,311.5 302.5,311.5C 302.337,309.143 302.503,306.81 303,304.5C 305.38,324.444 307.047,324.444 308,304.5C 310.982,302.804 312.316,300.137 312,296.5C 312.915,297.328 313.581,298.328 314,299.5C 314.422,297.645 314.922,295.811 315.5,294C 313.628,292.026 313.295,289.859 314.5,287.5C 315.386,288.325 315.719,289.325 315.5,290.5C 336.015,290.78 356.515,290.447 377,289.5C 378.5,289.833 380,290.167 381.5,290.5C 382.641,291.425 382.641,292.259 381.5,293C 378.821,292.842 376.154,292.342 373.5,291.5 Z"/></g>
<g><path style="opacity:1" fill="#82718b" d="M 232.5,293.5 C 232.833,293.5 233.167,293.5 233.5,293.5C 233.5,303.833 233.5,314.167 233.5,324.5C 251.5,324.5 269.5,324.5 287.5,324.5C 287.5,325.167 287.5,325.833 287.5,326.5C 269.167,326.5 250.833,326.5 232.5,326.5C 232.5,315.5 232.5,304.5 232.5,293.5 Z"/></g>
<g><path style="opacity:1" fill="#ead6b1" d="M 233.5,293.5 C 251.5,293.5 269.5,293.5 287.5,293.5C 287.5,303.833 287.5,314.167 287.5,324.5C 269.5,324.5 251.5,324.5 233.5,324.5C 233.5,314.167 233.5,303.833 233.5,293.5 Z"/></g>
<g><path style="opacity:1" fill="#f5dd97" d="M 286.5,299.5 C 286.5,307.5 286.5,315.5 286.5,323.5C 268.992,323.83 251.659,323.497 234.5,322.5C 250.837,322.667 267.17,322.5 283.5,322C 283.167,321.667 282.833,321.333 282.5,321C 283.416,320.626 284.25,320.126 285,319.5C 285.772,313.294 285.605,307.128 284.5,301C 284.836,299.97 285.503,299.47 286.5,299.5 Z"/></g>
<g><path style="opacity:1" fill="#7e6f88" d="M 318.5,293.5 C 318.5,303.833 318.5,314.167 318.5,324.5C 336.5,324.5 354.5,324.5 372.5,324.5C 372.5,314.167 372.5,303.833 372.5,293.5C 372.833,293.5 373.167,293.5 373.5,293.5C 373.833,293.5 374.167,293.5 374.5,293.5C 374.82,304.415 374.487,315.248 373.5,326C 354.836,326.5 336.17,326.667 317.5,326.5C 317.5,325.167 317.5,323.833 317.5,322.5C 317.173,312.652 317.506,302.986 318.5,293.5 Z"/></g>
<g><path style="opacity:1" fill="#ead6b3" d="M 318.5,293.5 C 336.5,293.5 354.5,293.5 372.5,293.5C 372.5,303.833 372.5,314.167 372.5,324.5C 354.5,324.5 336.5,324.5 318.5,324.5C 318.5,314.167 318.5,303.833 318.5,293.5 Z"/></g>
<g><path style="opacity:1" fill="#f6dd97" d="M 319.5,294.5 C 336.833,294.5 354.167,294.5 371.5,294.5C 371.5,304.167 371.5,313.833 371.5,323.5C 354.167,323.5 336.833,323.5 319.5,323.5C 319.5,313.833 319.5,304.167 319.5,294.5 Z"/></g>
<g><path style="opacity:1" fill="#70618b" d="M 202.5,293.5 C 204.176,294.183 204.843,295.517 204.5,297.5C 205.139,307.227 204.472,316.56 202.5,325.5C 202.5,325.167 202.5,324.833 202.5,324.5C 202.5,314.167 202.5,303.833 202.5,293.5 Z"/></g>
<g><path style="opacity:1" fill="#f9dc81" d="M 320.5,295.5 C 337.167,295.5 353.833,295.5 370.5,295.5C 370.5,304.5 370.5,313.5 370.5,322.5C 353.833,322.5 337.167,322.5 320.5,322.5C 320.5,313.5 320.5,304.5 320.5,295.5 Z"/></g>
<g><path style="opacity:1" fill="#f9dc82" d="M 286.5,299.5 C 285.503,299.47 284.836,299.97 284.5,301C 285.605,307.128 285.772,313.294 285,319.5C 284.25,320.126 283.416,320.626 282.5,321C 282.833,321.333 283.167,321.667 283.5,322C 267.17,322.5 250.837,322.667 234.5,322.5C 234.5,313.167 234.5,303.833 234.5,294.5C 251.833,294.5 269.167,294.5 286.5,294.5C 286.5,296.167 286.5,297.833 286.5,299.5 Z"/></g>
<g><path style="opacity:1" fill="#f5dc95" d="M 197.5,323.5 C 199.431,314.43 200.097,305.097 199.5,295.5C 183.153,295.167 166.82,295.501 150.5,296.5C 151.325,297.386 152.325,297.719 153.5,297.5C 153.5,298.833 153.5,300.167 153.5,301.5C 152.167,301.5 150.833,301.5 149.5,301.5C 149.5,308.5 149.5,315.5 149.5,322.5C 164.01,322.171 178.343,322.504 192.5,323.5C 177.833,323.5 163.167,323.5 148.5,323.5C 148.5,313.833 148.5,304.167 148.5,294.5C 166.167,294.5 183.833,294.5 201.5,294.5C 201.5,304.167 201.5,313.833 201.5,323.5C 200.167,323.5 198.833,323.5 197.5,323.5 Z"/></g>
<g><path style="opacity:1" fill="#f9dc81" d="M 197.5,323.5 C 195.833,323.5 194.167,323.5 192.5,323.5C 178.343,322.504 164.01,322.171 149.5,322.5C 149.5,315.5 149.5,308.5 149.5,301.5C 150.833,301.5 152.167,301.5 153.5,301.5C 153.5,300.167 153.5,298.833 153.5,297.5C 152.325,297.719 151.325,297.386 150.5,296.5C 166.82,295.501 183.153,295.167 199.5,295.5C 200.097,305.097 199.431,314.43 197.5,323.5 Z"/></g>
<g><path style="opacity:1" fill="#6b5d92" d="M 373.5,291.5 C 373.5,292.167 373.5,292.833 373.5,293.5C 373.167,293.5 372.833,293.5 372.5,293.5C 354.5,293.5 336.5,293.5 318.5,293.5C 317.506,302.986 317.173,312.652 317.5,322.5C 316.171,312.431 316.171,302.265 317.5,292C 336.164,291.5 354.83,291.333 373.5,291.5 Z"/></g>
<g><path style="opacity:1" fill="#6c609d" d="M 291.5,291.5 C 290.525,301.457 290.525,311.623 291.5,322C 291.383,324.616 290.05,326.116 287.5,326.5C 287.5,325.833 287.5,325.167 287.5,324.5C 287.5,314.167 287.5,303.833 287.5,293.5C 269.5,293.5 251.5,293.5 233.5,293.5C 233.285,291.821 233.952,290.821 235.5,290.5C 253.57,291.145 271.404,290.478 289,288.5C 289.698,289.691 290.531,290.691 291.5,291.5 Z"/></g>
<g><path style="opacity:1" fill="#645cb1" d="M 235.5,290.5 C 233.952,290.821 233.285,291.821 233.5,293.5C 233.167,293.5 232.833,293.5 232.5,293.5C 231.073,295.148 230.24,297.148 230,299.5C 229.51,298.207 229.343,296.873 229.5,295.5C 228.022,295.238 226.689,295.571 225.5,296.5C 226.447,298.059 227.113,299.726 227.5,301.5C 227.167,303.833 226.167,304.167 224.5,302.5C 223.516,305.428 223.183,308.428 223.5,311.5C 218.167,311.5 212.833,311.5 207.5,311.5C 208.08,315.649 207.414,319.316 205.5,322.5C 206.203,314.175 206.87,305.842 207.5,297.5C 206.5,297.5 205.5,297.5 204.5,297.5C 204.843,295.517 204.176,294.183 202.5,293.5C 202.5,292.5 202.5,291.5 202.5,290.5C 183.913,290.666 165.579,291.666 147.5,293.5C 147.167,293.5 146.833,293.5 146.5,293.5C 144.903,294.737 143.737,296.404 143,298.5C 142.506,300.134 142.34,301.801 142.5,303.5C 132.167,303.5 121.833,303.5 111.5,303.5C 111.5,300.833 111.5,298.167 111.5,295.5C 110.167,295.5 108.833,295.5 107.5,295.5C 107.366,291.698 108.033,288.032 109.5,284.5C 109.14,282.579 108.306,280.912 107,279.5C 106.617,280.056 106.117,280.389 105.5,280.5C 105.5,279.5 105.5,278.5 105.5,277.5C 107.5,277.5 109.5,277.5 111.5,277.5C 111.5,280.5 111.5,283.5 111.5,286.5C 130.17,286.333 148.836,286.5 167.5,287C 162.833,287.333 158.167,287.667 153.5,288C 168.355,288.207 183.188,288.707 198,289.5C 199.326,289.245 200.326,288.578 201,287.5C 202.733,289.602 204.733,289.935 207,288.5C 207.333,290.167 207.667,291.833 208,293.5C 208.483,292.552 208.649,291.552 208.5,290.5C 214.74,290.42 220.74,289.42 226.5,287.5C 226.5,288.5 226.5,289.5 226.5,290.5C 228.39,290.703 229.89,290.037 231,288.5C 232.622,289.099 234.122,289.766 235.5,290.5 Z"/></g>
<g><path style="opacity:1" fill="#6d6095" d="M 202.5,293.5 C 184.167,293.5 165.833,293.5 147.5,293.5C 165.579,291.666 183.913,290.666 202.5,290.5C 202.5,291.5 202.5,292.5 202.5,293.5 Z"/></g>
<g><path style="opacity:0.004" fill="#fefffe" d="M 40.5,341.5 C 41.8333,342.167 41.8333,342.167 40.5,341.5 Z"/></g>
<g><path style="opacity:0.004" fill="#fefffe" d="M 63.5,355.5 C 64.8333,356.167 64.8333,356.167 63.5,355.5 Z"/></g>
<g><path style="opacity:1" fill="#7167b0" d="M 97.5,335.5 C 99.2946,344.62 100.295,354.12 100.5,364C 100.833,365.5 101.167,367 101.5,368.5C 103.111,367.68 103.778,366.346 103.5,364.5C 106.167,364.5 108.833,364.5 111.5,364.5C 111.5,365.5 111.5,366.5 111.5,367.5C 115.846,367.666 120.179,367.499 124.5,367C 125.025,366.308 125.692,365.808 126.5,365.5C 137.313,367.446 148.313,368.113 159.5,367.5C 159.5,366.5 159.5,365.5 159.5,364.5C 167.5,364.5 175.5,364.5 183.5,364.5C 183.5,365.5 183.5,366.5 183.5,367.5C 194.167,367.5 204.833,367.5 215.5,367.5C 215.5,366.5 215.5,365.5 215.5,364.5C 218.167,364.5 220.833,364.5 223.5,364.5C 223.5,365.5 223.5,366.5 223.5,367.5C 234.167,367.5 244.833,367.5 255.5,367.5C 255.5,370.167 255.5,372.833 255.5,375.5C 282.175,375.833 308.842,375.5 335.5,374.5C 332.914,373.52 330.247,373.187 327.5,373.5C 327.5,372.5 327.5,371.5 327.5,370.5C 330.167,370.5 332.833,370.5 335.5,370.5C 335.5,369.5 335.5,368.5 335.5,367.5C 340.833,367.5 346.167,367.5 351.5,367.5C 351.5,370.167 351.5,372.833 351.5,375.5C 362.167,375.5 372.833,375.5 383.5,375.5C 383.5,374.5 383.5,373.5 383.5,372.5C 391.5,372.5 399.5,372.5 407.5,372.5C 407.5,373.5 407.5,374.5 407.5,375.5C 410.167,375.5 412.833,375.5 415.5,375.5C 415.358,371.777 416.691,370.944 419.5,373C 419.167,373.333 418.833,373.667 418.5,374C 419.282,376.74 419.782,379.574 420,382.5C 420.754,385.818 421.92,388.818 423.5,391.5C 423.458,397.248 421.958,402.582 419,407.5C 418.817,410.365 418.317,413.031 417.5,415.5C 415.143,415.663 412.81,415.497 410.5,415C 412.019,413.649 413.352,412.149 414.5,410.5C 406.07,409.905 397.736,408.905 389.5,407.5C 389.85,404.144 389.017,401.144 387,398.5C 386.333,401.167 385.667,401.167 385,398.5C 384.333,401.167 383.667,401.167 383,398.5C 382.333,401.167 381.667,401.167 381,398.5C 380.333,401.167 379.667,401.167 379,398.5C 378.333,401.167 377.667,401.167 377,398.5C 376.333,401.167 375.667,401.167 375,398.5C 374.333,401.167 373.667,401.167 373,398.5C 372.333,401.167 371.667,401.167 371,398.5C 370.667,399.167 370.333,399.833 370,400.5C 368.562,399.1 367.729,397.433 367.5,395.5C 340.691,395.742 314.024,395.742 287.5,395.5C 287.688,397.103 287.188,398.437 286,399.5C 281,399.167 276,398.833 271,398.5C 270.333,401.167 269.667,401.167 269,398.5C 268.333,401.167 267.667,401.167 267,398.5C 266.333,401.167 265.667,401.167 265,398.5C 264.333,401.167 263.667,401.167 263,398.5C 262.333,401.167 261.667,401.167 261,398.5C 260.333,401.167 259.667,401.167 259,398.5C 258.374,400.991 257.541,400.991 256.5,398.5C 255.508,394.217 255.174,389.884 255.5,385.5C 260.43,385.197 265.263,385.531 270,386.5C 270.692,385.975 271.192,385.308 271.5,384.5C 265.279,383.815 259.112,383.148 253,382.5C 249,382.5 245,382.5 241,382.5C 240,383.167 239,383.833 238,384.5C 223.333,384.5 208.667,384.5 194,384.5C 192.325,383.405 191.158,381.905 190.5,380C 164.169,379.5 137.835,379.333 111.5,379.5C 111.5,380.833 111.5,382.167 111.5,383.5C 106.489,383.334 101.489,383.501 96.5,384C 95.5562,386.719 95.2229,389.552 95.5,392.5C 94.5233,389.713 94.19,386.713 94.5,383.5C 95.6206,381.046 96.454,378.379 97,375.5C 97.4999,362.171 97.6666,348.837 97.5,335.5 Z"/></g>
<g><path style="opacity:0.004" fill="#fefffe" d="M 42.5,367.5 C 43.8333,368.167 43.8333,368.167 42.5,367.5 Z"/></g>
<g><path style="opacity:1" fill="#746aae" d="M 417.5,415.5 C 417.737,416.791 417.404,417.791 416.5,418.5C 401.505,417.799 386.505,418.466 371.5,420.5C 364.791,420.052 358.124,419.386 351.5,418.5C 351.5,417.5 351.5,416.5 351.5,415.5C 348.833,415.5 346.167,415.5 343.5,415.5C 343.5,414.5 343.5,413.5 343.5,412.5C 335.5,412.5 327.5,412.5 319.5,412.5C 319.5,413.5 319.5,414.5 319.5,415.5C 308.833,415.5 298.167,415.5 287.5,415.5C 287.5,416.5 287.5,417.5 287.5,418.5C 284.833,418.5 282.167,418.5 279.5,418.5C 279.5,417.5 279.5,416.5 279.5,415.5C 275.407,415.522 271.407,416.189 267.5,417.5C 258.256,415.73 248.923,415.063 239.5,415.5C 239.5,414.5 239.5,413.5 239.5,412.5C 236.833,412.5 234.167,412.5 231.5,412.5C 231.5,413.5 231.5,414.5 231.5,415.5C 220.833,415.5 210.167,415.5 199.5,415.5C 199.5,414.5 199.5,413.5 199.5,412.5C 194.21,411.547 188.877,410.881 183.5,410.5C 183.5,412.167 183.5,413.833 183.5,415.5C 180.833,415.5 178.167,415.5 175.5,415.5C 175.5,413.833 175.5,412.167 175.5,410.5C 172.833,410.5 170.167,410.5 167.5,410.5C 167.5,409.5 167.5,408.5 167.5,407.5C 148.436,406.266 129.436,406.266 110.5,407.5C 108.169,405.383 107.003,402.716 107,399.5C 105.204,398.233 103.371,398.233 101.5,399.5C 100.52,402.086 100.187,404.753 100.5,407.5C 98.4727,407.662 96.4727,407.495 94.5,407C 95.6956,406.346 95.6956,405.846 94.5,405.5C 93.8182,406.243 93.1515,406.909 92.5,407.5C 92.5953,402.313 93.5953,397.313 95.5,392.5C 95.2229,389.552 95.5562,386.719 96.5,384C 101.489,383.501 106.489,383.334 111.5,383.5C 111.5,382.167 111.5,380.833 111.5,379.5C 137.835,379.333 164.169,379.5 190.5,380C 191.158,381.905 192.325,383.405 194,384.5C 208.667,384.5 223.333,384.5 238,384.5C 239,383.833 240,383.167 241,382.5C 245,382.5 249,382.5 253,382.5C 259.112,383.148 265.279,383.815 271.5,384.5C 271.192,385.308 270.692,385.975 270,386.5C 265.263,385.531 260.43,385.197 255.5,385.5C 255.174,389.884 255.508,394.217 256.5,398.5C 257.541,400.991 258.374,400.991 259,398.5C 259.667,401.167 260.333,401.167 261,398.5C 261.667,401.167 262.333,401.167 263,398.5C 263.667,401.167 264.333,401.167 265,398.5C 265.667,401.167 266.333,401.167 267,398.5C 267.667,401.167 268.333,401.167 269,398.5C 269.667,401.167 270.333,401.167 271,398.5C 276,398.833 281,399.167 286,399.5C 287.188,398.437 287.688,397.103 287.5,395.5C 314.024,395.742 340.691,395.742 367.5,395.5C 367.729,397.433 368.562,399.1 370,400.5C 370.333,399.833 370.667,399.167 371,398.5C 371.667,401.167 372.333,401.167 373,398.5C 373.667,401.167 374.333,401.167 375,398.5C 375.667,401.167 376.333,401.167 377,398.5C 377.667,401.167 378.333,401.167 379,398.5C 379.667,401.167 380.333,401.167 381,398.5C 381.667,401.167 382.333,401.167 383,398.5C 383.667,401.167 384.333,401.167 385,398.5C 385.667,401.167 386.333,401.167 387,398.5C 389.017,401.144 389.85,404.144 389.5,407.5C 397.736,408.905 406.07,409.905 414.5,410.5C 413.352,412.149 412.019,413.649 410.5,415C 412.81,415.497 415.143,415.663 417.5,415.5 Z"/></g>
<g><path style="opacity:0.737" fill="#9c97b5" d="M 92.5,378.5 C 92.3895,388.385 90.8895,398.051 88,407.5C 87.6174,408.056 87.1174,408.389 86.5,408.5C 88.217,398.322 90.217,388.322 92.5,378.5 Z"/></g>
<g><path style="opacity:0.004" fill="#fefffe" d="M 40.5,397.5 C 41.8333,398.167 41.8333,398.167 40.5,397.5 Z"/></g>
<g><path style="opacity:1" fill="#746ca7" d="M 425.5,255.5 C 425.667,302.168 425.5,348.835 425,395.5C 423.844,399.418 423.344,403.418 423.5,407.5C 423.982,410.831 422.982,413.497 420.5,415.5C 418.619,418.906 416.452,422.239 414,425.5C 410.922,427.194 409.422,429.861 409.5,433.5C 407.77,434.026 406.436,435.026 405.5,436.5C 403.313,437.758 400.98,438.758 398.5,439.5C 398.17,436.891 396.67,435.224 394,434.5C 393.333,433.833 393.333,433.167 394,432.5C 397.045,432.208 399.212,430.708 400.5,428C 403.39,428.445 406.057,428.445 408.5,428C 410.835,424.46 413.501,421.293 416.5,418.5C 417.404,417.791 417.737,416.791 417.5,415.5C 418.317,413.031 418.817,410.365 419,407.5C 421.958,402.582 423.458,397.248 423.5,391.5C 424.342,351.506 424.675,311.506 424.5,271.5C 424.179,265.974 424.512,260.64 425.5,255.5 Z"/></g>
<g><path style="opacity:1" fill="#796db0" d="M 416.5,418.5 C 413.501,421.293 410.835,424.46 408.5,428C 406.057,428.445 403.39,428.445 400.5,428C 399.212,430.708 397.045,432.208 394,432.5C 393.333,433.167 393.333,433.833 394,434.5C 396.67,435.224 398.17,436.891 398.5,439.5C 395.386,441.739 392.052,443.905 388.5,446C 384.281,447.109 380.281,448.775 376.5,451C 373.522,451.696 370.522,452.196 367.5,452.5C 362.085,452.49 356.752,451.823 351.5,450.5C 354.107,449.682 356.774,449.182 359.5,449C 361.226,447.47 363.226,446.47 365.5,446C 361.622,443.969 357.622,442.136 353.5,440.5C 350.555,442.496 347.221,443.83 343.5,444.5C 336.833,444.833 330.167,445.167 323.5,445.5C 311.482,444.966 299.482,444.299 287.5,443.5C 287.67,444.822 287.337,445.989 286.5,447C 281.511,447.499 276.511,447.666 271.5,447.5C 271.338,445.473 271.505,443.473 272,441.5C 283.885,443.326 289.051,443.326 287.5,441.5C 288.082,437.685 287.248,434.351 285,431.5C 281,431.5 277,431.5 273,431.5C 271.681,433.25 271.181,435.25 271.5,437.5C 266.489,437.334 261.489,437.501 256.5,438C 255.584,438.374 254.75,438.874 254,439.5C 249.667,439.167 245.333,438.833 241,438.5C 238.426,441.027 235.26,442.194 231.5,442C 233.833,442.333 236.167,442.667 238.5,443C 225.328,443.99 212.328,443.49 199.5,441.5C 191.622,443.093 183.622,443.759 175.5,443.5C 175.5,444.5 175.5,445.5 175.5,446.5C 173.5,446.5 171.5,446.5 169.5,446.5C 169.5,444.167 169.5,441.833 169.5,439.5C 171.5,439.5 173.5,439.5 175.5,439.5C 175.5,436.833 175.5,434.167 175.5,431.5C 155.888,431.728 137.054,431.395 119,430.5C 118.333,433.167 117.667,433.167 117,430.5C 116.333,433.167 115.667,433.167 115,430.5C 114.333,433.167 113.667,433.167 113,430.5C 112.933,433.047 112.099,435.214 110.5,437C 102.109,436.934 93.9421,438.1 86,440.5C 85.6174,439.944 85.1174,439.611 84.5,439.5C 85.1805,435.881 85.6805,432.214 86,428.5C 87.9235,425.564 89.4235,422.397 90.5,419C 90.2645,418.127 89.9312,417.293 89.5,416.5C 91.3706,413.766 92.3706,410.766 92.5,407.5C 93.1515,406.909 93.8182,406.243 94.5,405.5C 95.6956,405.846 95.6956,406.346 94.5,407C 96.4727,407.495 98.4727,407.662 100.5,407.5C 100.187,404.753 100.52,402.086 101.5,399.5C 103.371,398.233 105.204,398.233 107,399.5C 107.003,402.716 108.169,405.383 110.5,407.5C 129.436,406.266 148.436,406.266 167.5,407.5C 167.5,408.5 167.5,409.5 167.5,410.5C 170.167,410.5 172.833,410.5 175.5,410.5C 175.5,412.167 175.5,413.833 175.5,415.5C 178.167,415.5 180.833,415.5 183.5,415.5C 183.5,413.833 183.5,412.167 183.5,410.5C 188.877,410.881 194.21,411.547 199.5,412.5C 199.5,413.5 199.5,414.5 199.5,415.5C 210.167,415.5 220.833,415.5 231.5,415.5C 231.5,414.5 231.5,413.5 231.5,412.5C 234.167,412.5 236.833,412.5 239.5,412.5C 239.5,413.5 239.5,414.5 239.5,415.5C 248.923,415.063 258.256,415.73 267.5,417.5C 271.407,416.189 275.407,415.522 279.5,415.5C 279.5,416.5 279.5,417.5 279.5,418.5C 282.167,418.5 284.833,418.5 287.5,418.5C 287.5,417.5 287.5,416.5 287.5,415.5C 298.167,415.5 308.833,415.5 319.5,415.5C 319.5,414.5 319.5,413.5 319.5,412.5C 327.5,412.5 335.5,412.5 343.5,412.5C 343.5,413.5 343.5,414.5 343.5,415.5C 346.167,415.5 348.833,415.5 351.5,415.5C 351.5,416.5 351.5,417.5 351.5,418.5C 358.124,419.386 364.791,420.052 371.5,420.5C 386.505,418.466 401.505,417.799 416.5,418.5 Z"/></g>
<g><path style="opacity:0.275" fill="#c5c3d5" d="M 427.5,399.5 C 425.759,412.089 420.759,423.089 412.5,432.5C 415.423,426.985 418.09,421.318 420.5,415.5C 422.982,413.497 423.982,410.831 423.5,407.5C 425.047,405.032 426.38,402.365 427.5,399.5 Z"/></g>
<g><path style="opacity:0.963" fill="#7c74a2" d="M 94.5,375.5 C 94.5,378.167 94.5,380.833 94.5,383.5C 93.4251,389.676 92.4251,396.009 91.5,402.5C 90.4869,405.615 89.3202,408.615 88,411.5C 87.6667,415.167 87.3333,418.833 87,422.5C 86.1482,423.571 85.3149,424.571 84.5,425.5C 85.8968,419.929 86.5635,414.262 86.5,408.5C 87.1174,408.389 87.6174,408.056 88,407.5C 90.8895,398.051 92.3895,388.385 92.5,378.5C 92.5,378.167 92.5,377.833 92.5,377.5C 93.1667,376.833 93.8333,376.167 94.5,375.5 Z"/></g>
<g><path style="opacity:0.004" fill="#fefffe" d="M 437.5,419.5 C 438.833,420.167 438.833,420.167 437.5,419.5 Z"/></g>
<g><path style="opacity:0.733" fill="#a7a2bd" d="M 86.5,408.5 C 86.5635,414.262 85.8968,419.929 84.5,425.5C 81.097,436.382 78.097,447.382 75.5,458.5C 74.2521,461.942 73.4188,465.608 73,469.5C 72.6174,470.056 72.1174,470.389 71.5,470.5C 75.755,449.535 80.755,428.868 86.5,408.5 Z"/></g>
<g><path style="opacity:0.902" fill="#8881a5" d="M 420.5,415.5 C 418.09,421.318 415.423,426.985 412.5,432.5C 411.391,432.557 410.391,432.89 409.5,433.5C 409.422,429.861 410.922,427.194 414,425.5C 416.452,422.239 418.619,418.906 420.5,415.5 Z"/></g>
<g><path style="opacity:1" fill="#7b70ae" d="M 367.5,452.5 C 362.015,453.327 356.348,453.827 350.5,454C 303.492,453.977 256.492,454.143 209.5,454.5C 200.348,453.506 191.015,453.173 181.5,453.5C 181.5,451.5 181.5,449.5 181.5,447.5C 180.167,447.5 178.833,447.5 177.5,447.5C 178.412,457.75 174.079,460.916 164.5,457C 165.833,456.333 165.833,455.667 164.5,455C 160.148,454.248 155.815,453.415 151.5,452.5C 149.995,451.158 149.328,449.492 149.5,447.5C 131.164,447.667 112.83,447.5 94.5,447C 93.5939,445.301 93.2606,443.467 93.5,441.5C 89.2798,441.427 86.9464,443.427 86.5,447.5C 85.5,447.5 84.5,447.5 83.5,447.5C 83.67,446.178 83.3366,445.011 82.5,444C 83.5822,442.67 84.2488,441.17 84.5,439.5C 85.1174,439.611 85.6174,439.944 86,440.5C 93.9421,438.1 102.109,436.934 110.5,437C 112.099,435.214 112.933,433.047 113,430.5C 113.667,433.167 114.333,433.167 115,430.5C 115.667,433.167 116.333,433.167 117,430.5C 117.667,433.167 118.333,433.167 119,430.5C 137.054,431.395 155.888,431.728 175.5,431.5C 175.5,434.167 175.5,436.833 175.5,439.5C 173.5,439.5 171.5,439.5 169.5,439.5C 169.5,441.833 169.5,444.167 169.5,446.5C 171.5,446.5 173.5,446.5 175.5,446.5C 175.5,445.5 175.5,444.5 175.5,443.5C 183.622,443.759 191.622,443.093 199.5,441.5C 212.328,443.49 225.328,443.99 238.5,443C 236.167,442.667 233.833,442.333 231.5,442C 235.26,442.194 238.426,441.027 241,438.5C 245.333,438.833 249.667,439.167 254,439.5C 254.75,438.874 255.584,438.374 256.5,438C 261.489,437.501 266.489,437.334 271.5,437.5C 271.181,435.25 271.681,433.25 273,431.5C 277,431.5 281,431.5 285,431.5C 287.248,434.351 288.082,437.685 287.5,441.5C 289.051,443.326 283.885,443.326 272,441.5C 271.505,443.473 271.338,445.473 271.5,447.5C 276.511,447.666 281.511,447.499 286.5,447C 287.337,445.989 287.67,444.822 287.5,443.5C 299.482,444.299 311.482,444.966 323.5,445.5C 330.167,445.167 336.833,444.833 343.5,444.5C 347.221,443.83 350.555,442.496 353.5,440.5C 357.622,442.136 361.622,443.969 365.5,446C 363.226,446.47 361.226,447.47 359.5,449C 356.774,449.182 354.107,449.682 351.5,450.5C 356.752,451.823 362.085,452.49 367.5,452.5 Z"/></g>
<g><path style="opacity:0.004" fill="#fefffe" d="M 58.5,431.5 C 59.8333,432.167 59.8333,432.167 58.5,431.5 Z"/></g>
<g><path style="opacity:0.004" fill="#fefffe" d="M 455.5,437.5 C 456.833,438.167 456.833,438.167 455.5,437.5 Z"/></g>
<g><path style="opacity:0.373" fill="#bdb9cf" d="M 412.5,432.5 C 408.098,439.374 402.098,444.374 394.5,447.5C 397.017,444.488 400.017,441.988 403.5,440C 404.305,438.887 404.972,437.721 405.5,436.5C 406.436,435.026 407.77,434.026 409.5,433.5C 410.391,432.89 411.391,432.557 412.5,432.5 Z"/></g>
<g><path style="opacity:1" fill="#7f72ac" d="M 94.5,383.5 C 94.19,386.713 94.5233,389.713 95.5,392.5C 93.5953,397.313 92.5953,402.313 92.5,407.5C 92.3706,410.766 91.3706,413.766 89.5,416.5C 89.9312,417.293 90.2645,418.127 90.5,419C 89.4235,422.397 87.9235,425.564 86,428.5C 85.6805,432.214 85.1805,435.881 84.5,439.5C 84.2488,441.17 83.5822,442.67 82.5,444C 83.3366,445.011 83.67,446.178 83.5,447.5C 84.5,447.5 85.5,447.5 86.5,447.5C 86.9464,443.427 89.2798,441.427 93.5,441.5C 93.2606,443.467 93.5939,445.301 94.5,447C 112.83,447.5 131.164,447.667 149.5,447.5C 149.328,449.492 149.995,451.158 151.5,452.5C 155.815,453.415 160.148,454.248 164.5,455C 165.833,455.667 165.833,456.333 164.5,457C 174.079,460.916 178.412,457.75 177.5,447.5C 178.833,447.5 180.167,447.5 181.5,447.5C 181.5,449.5 181.5,451.5 181.5,453.5C 191.015,453.173 200.348,453.506 209.5,454.5C 201.16,454.334 192.827,454.5 184.5,455C 183.619,455.708 182.953,456.542 182.5,457.5C 175.684,459.426 169.351,462.092 163.5,465.5C 156.676,466.224 150.009,467.557 143.5,469.5C 135.715,471.714 127.715,473.38 119.5,474.5C 117.864,476.105 116.031,477.439 114,478.5C 102.631,478.522 91.7975,480.855 81.5,485.5C 78.77,484.99 76.6034,483.656 75,481.5C 74.9855,473.845 75.1522,466.178 75.5,458.5C 78.097,447.382 81.097,436.382 84.5,425.5C 85.3149,424.571 86.1482,423.571 87,422.5C 87.3333,418.833 87.6667,415.167 88,411.5C 89.3202,408.615 90.4869,405.615 91.5,402.5C 92.4251,396.009 93.4251,389.676 94.5,383.5 Z"/></g>
<g><path style="opacity:0.043" fill="#bbb9cd" d="M 394.5,447.5 C 389.492,451.162 383.826,453.496 377.5,454.5C 382.767,451.372 388.434,449.039 394.5,447.5 Z"/></g>
<g><path style="opacity:0.98" fill="#7e76a4" d="M 405.5,436.5 C 404.972,437.721 404.305,438.887 403.5,440C 400.017,441.988 397.017,444.488 394.5,447.5C 388.434,449.039 382.767,451.372 377.5,454.5C 372.797,454.437 368.13,454.771 363.5,455.5C 304.166,455.333 244.832,455.5 185.5,456C 184.756,457.039 183.756,457.539 182.5,457.5C 182.953,456.542 183.619,455.708 184.5,455C 192.827,454.5 201.16,454.334 209.5,454.5C 256.492,454.143 303.492,453.977 350.5,454C 356.348,453.827 362.015,453.327 367.5,452.5C 370.522,452.196 373.522,451.696 376.5,451C 380.281,448.775 384.281,447.109 388.5,446C 392.052,443.905 395.386,441.739 398.5,439.5C 400.98,438.758 403.313,437.758 405.5,436.5 Z"/></g>
<g><path style="opacity:0.773" fill="#908aab" d="M 363.5,455.5 C 304.66,455.834 245.993,456.834 187.5,458.5C 179.638,461.231 171.638,463.564 163.5,465.5C 169.351,462.092 175.684,459.426 182.5,457.5C 183.756,457.539 184.756,457.039 185.5,456C 244.832,455.5 304.166,455.333 363.5,455.5 Z"/></g>
<g><path style="opacity:0.224" fill="#b4b1c9" d="M 377.5,454.5 C 373.409,455.895 369.076,456.728 364.5,457C 353.5,457.333 342.5,457.667 331.5,458C 283.472,457.869 235.472,458.035 187.5,458.5C 245.993,456.834 304.66,455.834 363.5,455.5C 368.13,454.771 372.797,454.437 377.5,454.5 Z"/></g>
<g><path style="opacity:0.004" fill="#fefffe" d="M 376.5,466.5 C 377.833,467.167 377.833,467.167 376.5,466.5 Z"/></g>
<g><path style="opacity:0.004" fill="#fefffe" d="M 277.5,467.5 C 278.833,468.167 278.833,468.167 277.5,467.5 Z"/></g>
<g><path style="opacity:0.004" fill="#fefffe" d="M 227.5,468.5 C 228.833,469.167 228.833,469.167 227.5,468.5 Z"/></g>
<g><path style="opacity:0.22" fill="#b7b2c9" d="M 163.5,465.5 C 152.386,469.537 141.052,473.204 129.5,476.5C 134.424,474.535 139.091,472.202 143.5,469.5C 150.009,467.557 156.676,466.224 163.5,465.5 Z"/></g>
<g><path style="opacity:0.141" fill="#c2b9d2" d="M 129.5,476.5 C 122.817,479.258 115.817,481.258 108.5,482.5C 108.97,481.307 109.97,480.64 111.5,480.5C 117.466,478.954 123.466,477.621 129.5,476.5 Z"/></g>
<g><path style="opacity:0.102" fill="#bbb7c5" d="M 71.5,470.5 C 71.4135,474.857 71.0802,479.19 70.5,483.5C 69.258,479.088 69.5913,474.754 71.5,470.5 Z"/></g>
<g><path style="opacity:1" fill="#847ba4" d="M 75.5,458.5 C 75.1522,466.178 74.9855,473.845 75,481.5C 76.6034,483.656 78.77,484.99 81.5,485.5C 91.7975,480.855 102.631,478.522 114,478.5C 116.031,477.439 117.864,476.105 119.5,474.5C 127.715,473.38 135.715,471.714 143.5,469.5C 139.091,472.202 134.424,474.535 129.5,476.5C 123.466,477.621 117.466,478.954 111.5,480.5C 109.97,480.64 108.97,481.307 108.5,482.5C 102.513,483.663 96.5129,484.829 90.5,486C 85.984,489.008 80.984,490.174 75.5,489.5C 74.9455,486.609 73.2789,484.609 70.5,483.5C 71.0802,479.19 71.4135,474.857 71.5,470.5C 72.1174,470.389 72.6174,470.056 73,469.5C 73.4188,465.608 74.2521,461.942 75.5,458.5 Z"/></g>
<g><path style="opacity:0.059" fill="#a8a3b6" d="M 108.5,482.5 C 99.401,486.251 89.901,488.917 80,490.5C 74.6506,490.97 71.4839,488.637 70.5,483.5C 73.2789,484.609 74.9455,486.609 75.5,489.5C 80.984,490.174 85.984,489.008 90.5,486C 96.5129,484.829 102.513,483.663 108.5,482.5 Z"/></g>
<g><path style="opacity:0.004" fill="#fefffe" d="M 356.5,497.5 C 357.833,498.167 357.833,498.167 356.5,497.5 Z"/></g>
</svg>
